<svg xmlns="http://www.w3.org/2000/svg" width="1080" height="480">
  <path fill="#C15115" fill-rule="evenodd" d="M213.7 363.3c-2.3-.6-3.4-2.5-3.7-4.7-.2-1.2 0-2.2 0-3.3.2-1.4-.7-6.3-1.8-7.2-1-.8-1.5-1.4-2-2.7-1-2.4-1-5-1-7.5 0-4.6-1-9.2-3.2-13.2-2.5-4.5-2.7-10.6 1.2-15.5 1.4-1.7 2.6-3.3 2-5.8-.6-2 .2-3.5 1.6-5 1-1 1.3-1.8 0-3-4-3.4-1.5-6.7-2-12-.2-3.8-.7-7.5 2.3-10.4 5.5-5 3.5-17.8-3-21.2-11-6-23.3-9.6-34.2-16.2-2-1.2-4.4-1.7-4.7-4.6 0-1.2-1-1.7-2-1.8-6.8-.6-12-4.8-17.8-7.5-4-2-5-5.3-3-9.2 2-4 4.3-8 6-12 1.8-4 5-5.5 9-3.2 5.7 3.3 12.2 4.8 16.8 9.8 1 1 2.4 2 3.2 0 1-2.2 3.8-4.2 1.4-7-.4-.6-1-.8-1.7-1-8-3.6-16-7-23.8-10.6-3-1.3-4.7 0-7.5 1.5-8 4.4-9.3 13-13.7 19.5-1.8 2.7-3.4 4.2-6.8 3-23.8-7-47-15.8-69-27.6-4.2-2.2-5.2-4.4-2.5-9 5.6-9.2 10.5-19 15.5-28.5 1.7-3.3 3.6-4 7-2 9 5.6 18.8 10 27.7 16 1.4 1 3 2 5 1.7 22.2-1.8 41.8 6.6 61.4 15.3 6.4 3 12.8 5.6 19.2 8.4 3.3 1.6 5.2 2 5.7-3 1.5-13.2 2-26.5 1-39.8-.3-2.5 0-5-.4-7.5-1.4-10.5 7.5-16.7 15.7-19.4 10.3-3.3 20.5-3.3 31-.8 6.2 1.6 10.4 5.8 14.8 9.8 1.8 1.6 1.6 4.2 1.6 6.6 0 11.5.3 23 0 34.5 0 7 2.8 13.7 1.3 20.7 0 .3.2.8.4 1 3 1 6.3.5 9.4.3 2.4-.2 3-2 3.3-4 .3-3 .5-6.2.6-9.3 0-3 1.4-4.6 4.5-4.6H331c6 .2 8.3 5 5.8 10.4-2 4.5-6 7-9.7 10-17.7 15-38 24-61.4 25.7-8 .5-8.5 0-10.3-7.6-1.4-6.3-6.2-4.2-10-4.4-3.8-.2-5.2 2.4-5.3 5.8v17.5c0 2 0 4.7 2.2 5.4 2.8 1 5.6-2 8.2.3.4-2.7 5.3-4.3 7.4-5.5 4-2.2 8.4-4 12.6-6.3 3-1.5 5-1 6.7 2 2.8 4.3 5 9 7 13.7.8 2 1 4-1.4 5-7 3-13 8-20.8 9.2h-1c-.3 6.4-6.5 5.5-10 8-3.2 2.2-4.2 9.3-1 11.8 2.7 2 3 4.4 3.2 7.3.4 5.3-.4 16-.8 16.4-6.3 6 .7 9.5 3 13.5 1.6 2.8 3.4 12.8 1 15.6-3.5 4-3 8.2-3.2 12.6 0 4 0 7.4-3.3 10.5-2.7 2.5-1 6.6-1.5 10-.5 2.8-1.3 4.8-4 5.6-5 1.6-10.4 3-15.7 2.2-3.6-.4-11-1.4-14.8-2.5zM107.4 173c-2.7-.2-4.6 1-5.8 3-1.4 2.4-2.6 4.8-3.8 7.2-5.3 10.4-5.3 10.4 5.7 14.5.3 0 .6.3 1 .4 2.8 1.3 5 .3 6.3-2.2l7.4-13.6c.8-1.5 1.5-3.2 0-4.5-3.3-2.6-6.6-4.7-10.8-4.8zm100.4 34h-3.5c-2 0-4.8-.5-5.2 2.5-.3 2.8-.7 5.8 2.3 7.7 1.4 1 3 1.6 4.4 2.3 9 4 11.6 6.5 11.3-7 0-4.5-1.6-6-5.7-5.6h-3.5z" clip-rule="evenodd"/>
  <path fill="#C15115" d="M359.6 307c-16 0-30.2-6.2-39-17-1.3-1.6-1.2-4 .4-5.4l19.3-17.7c.8-.8 1.8-1.2 3-1.2 1 0 2 .5 2.7 1.3 5.4 6 13 9.8 20 9.8 5 0 11.3-1 12.7-6.4.6-2 0-3-8-6.7l-13.8-6.5c-14.2-6.3-20.2-19-16-34 5.3-20.2 27.4-35.4 51.3-35.4 14.5 0 27 5.7 34.3 15.7 1.2 1.7 1 4-.5 5.3l-17 16c-1.6 1.6-4 1.6-5.5 0-5.4-5-10.3-7-17-7-3 0-10 .6-11.5 6-.5 1.8 1.3 3 9.5 6.6l1.4.6 11.8 5.4c14.6 6.5 20 18 15.6 34-2.7 10-9.3 19-18.6 25.7-10 7.2-22 11-35.2 11zM434.4 334.7H409c-1.3 0-2.5-.5-3.3-1.5s-1-2.3-.7-3.5L435 218c.4-1.8 2-3 3.8-3h21c1 0 2 .4 2.8 1.2.8.8 1.2 2 1 3v.5c6.3-3.6 14-6.7 22-6.7 9.2 0 16.6 3.3 21.3 9.5 6.4 8.4 7.6 21.2 3.3 37C502 290.8 478.8 307 460 307c-5.2 0-10-1.6-14.2-4.6l-1.2 5.7v.3l-6.3 23.5c-.5 1.7-2 3-4 3zm18.8-58.8c1.7 1.3 4 2 6.5 2 7 0 13-7.3 16.4-20 2.8-10 1.6-13.5.7-14.7-.3-.4-1-1.4-4.3-1.4-3.4 0-7 1.4-11.4 5l-7.8 29zM537 305h-25.4c-1.2 0-2.4-.7-3-1.6-1-1-1-2.3-.8-3.5l22-82c.4-1.8 2-3 3.8-3h21c1 0 2 .5 3 1.4.7 1 1 2 .8 3.2l-.4 3c7.3-6.2 15.3-9.6 22.6-9.6 5 0 8.3.6 11.3 2 1.8 1 2.7 3.4 1.7 5.4l-10.2 22c-.8 1.8-2.8 2.7-4.6 2.2-2.8-.7-4.7-1.2-7.7-1.2-2.2 0-10 1-18 12.4L541 302c-.5 1.7-2 3-4 3zM604 305h-25.5c-1.3 0-2.5-.7-3.2-1.6-.8-1-1-2.3-.7-3.5l22-82c.4-1.8 2-3 3.8-3H626c1 0 2.3.6 3 1.6.8 1 1 2.2.8 3.4l-22 82c-.5 1.7-2 3-4 3zM616.3 211.6c-5.7 0-10.3-2-13-5.6-2.6-3.3-3.3-7.8-2-12.5 2.5-9.6 11.6-16.2 22-16.2 5.6 0 10 2 13 5.5 2.5 3.4 3.2 8 2 12.7-2.6 9.5-11.7 16-22 16zM699.6 305H674c-1.3 0-2.5-.7-3.2-1.6-.8-1-1-2.3-.7-3.5l12.8-47.6c2-7.3 1-9 1-9-.3-.2-1-.5-2.7-.5-4 0-7.2 1.6-12.7 5.6L654 302c-.4 1.7-2 3-3.8 3h-25.5c-1.3 0-2.4-.7-3.2-1.6-.8-1-1-2.3-.7-3.5l22-82c.4-1.8 2-3 3.8-3h21c1 0 2 .5 3 1.3s1 2 1 3l-.3 2c6.8-4.3 15.4-8.3 25.3-8.3 8.4 0 14.6 2.5 18.5 7.6 5 6.5 5.7 16.8 2 30.7L703.4 302c-.4 1.7-2 3-3.8 3zM785.6 334.7h-25.8c-1.2 0-2.4-.5-3-1.5s-1.2-2.3-.8-3.5l6.5-24.3v-.3l.7-1.7c-5 2.3-10.3 3.6-15 3.6-9.7 0-17.5-3.5-22.5-10-6.6-8.5-7.7-21.7-3.3-38 8-30 31.3-46 49.2-46 8 0 14 2.3 18.7 7.3l1.7-3.2c.7-1.2 2-2 3.5-2h20c1.3 0 2.5.6 3.2 1.6.8 1 1 2.2.7 3.4l-30 111.8c-.4 1.7-2 3-3.8 3zM772 242c-4.8 0-11.7 4.8-15.5 18.6-2.8 10.5-1.4 14.3-.4 15.7.5.4 1.4 1.6 4.7 1.6 3.4 0 6.5-1 10.5-5l7.7-29c-1.8-1.5-4-2-7-2zM837 307c-8.3 0-14.3-2.4-18-7-4.3-5.8-4.8-14.5-1.5-26.7l23.6-88.5c.6-1.7 2.2-3 4-3h25.5c1.2 0 2.4.7 3.2 1.6.7 1 1 2.3.7 3.5l-24 89.3-.3 2 1.5-.3c1.2-.2 2.5 0 3.5 1 1 .8 1.4 2 1.2 3.3l-2 19c-.2 1.4-1.2 2.7-2.6 3.2-2.4 1-7.4 2.4-14.6 2.4zM898.5 307c-13 0-23.4-4.5-29.6-12.7-6.8-8.8-8.4-21-4.5-35.3 8-30 34-46 54.3-46 14 0 21.2 5.6 24.8 10.4 6.2 8 7.4 19.8 3.5 34.2-1 4.4-3 9.5-4.3 12-.8 1.2-2 2-3.5 2h-44c.3 2 1 3.5 2 4.7 2 2 5.4 3 10 3 5.2 0 10.6-1.5 17-4.7 1-.5 2.3-.6 3.4 0 1 .4 2 1.3 2.2 2.5l4.4 15.5c.5 1.7-.3 3.6-1.8 4.5-10.4 6.2-23 10-34 10zm3.7-60.2h17.6c.2-2 0-3.7-.7-4.6-1-1.4-3.3-1.6-5-1.6-4.5 0-8.6 2.2-11.8 6.2zM973.3 305h-25.5c-1.2 0-2.4-.7-3.2-1.6-.7-1-1-2.3-.7-3.5l22-82c.4-1.8 2-3 3.8-3h20.8c1.2 0 2.3.5 3 1.4.8 1 1.2 2 1 3.2l-.4 3c7.3-6.2 15.3-9.6 22.6-9.6 5 0 8.2.6 11.3 2 2 1 2.8 3.4 2 5.4l-10.3 22c-.8 1.8-2.8 2.7-4.7 2.2-2.7-.7-4.5-1.2-7.5-1.2-2.3 0-10 1-18 12.4L977.2 302c-.5 1.7-2 3-4 3z"/>
</svg>
