<svg 
  xmlns="http://www.w3.org/2000/svg" width="256" height="256" 
  xmlns:xlink="http://www.w3.org/1999/xlink">
  <path fill="#FFF" stroke="#FFF" stroke-width="2" stroke-miterlimit="10" d="M99 225.7L97 222.3 118 210.1 118 64 122 64 122 212.5z" stroke-linecap="round" stroke-linejoin="round"/>
  <path fill="#FFF" stroke="#FFF" stroke-width="2" stroke-miterlimit="10" d="M37 225.7L35 222.3 102 183.6 102 64 106 64 106 185.9z" stroke-linecap="round" stroke-linejoin="round"/>
  <path fill="#FFF" stroke="#FFF" stroke-width="2" stroke-miterlimit="10" d="M37 165.7L35 162.3 86 132.8 86 64 90 64 90 135.1zM157 225.7L134 212.5 134 64 138 64 138 210.1 159 222.3z" stroke-linecap="round" stroke-linejoin="round"/>
  <path fill="#FFF" stroke="#FFF" stroke-width="2" stroke-miterlimit="10" d="M219 225.7L150 185.9 150 64 154 64 154 183.6 221 222.3z" stroke-linecap="round" stroke-linejoin="round"/>
  <path fill="#FFF" stroke="#FFF" stroke-width="2" stroke-miterlimit="10" d="M219 165.7L166 135.1 166 64 170 64 170 132.8 221 162.3z" stroke-linecap="round" stroke-linejoin="round"/>
  <path fill="none" stroke="#000" stroke-width="2" stroke-miterlimit="10" d="M120 64L120 211.3 98 224" stroke-linecap="round" stroke-linejoin="round"/>
  <path fill="none" stroke="#000" stroke-width="2" stroke-miterlimit="10" d="M104 64L104 184.7 36 224" stroke-linecap="round" stroke-linejoin="round"/>
  <path fill="none" stroke="#000" stroke-width="2" stroke-miterlimit="10" d="M88 64L88 134 36 164M136 64L136 211.3 158 224" stroke-linecap="round" stroke-linejoin="round"/>
  <path fill="none" stroke="#000" stroke-width="2" stroke-miterlimit="10" d="M152 64L152 184.7 220 224" stroke-linecap="round" stroke-linejoin="round"/>
  <path fill="none" stroke="#000" stroke-width="2" stroke-miterlimit="10" d="M168 64L168 134 220 164" stroke-linecap="round" stroke-linejoin="round"/>
  <path fill="#FFF" stroke="#FFF" stroke-width="2" stroke-miterlimit="10" d="M12 225H60V229H12zM12 231H60V235H12zM12 213H60V217H12zM12 219H60V223H12z"/>
  <path fill="#FFF" stroke="#FFF" stroke-width="2" stroke-miterlimit="10" d="M37 200H41V248H37zM43 200H47V248H43zM25 200H29V248H25zM31 200H35V248H31z"/>
  <g fill="#FFF">
    <path d="M24,241c-2.757,0-5-2.243-5-5v-24c0-2.757,2.243-5,5-5h24c2.757,0,5,2.243,5,5v24c0,2.757-2.243,5-5,5H24 z"/>
    <path d="M48,208c2.206,0,4,1.794,4,4v24c0,2.206-1.794,4-4,4H24c-2.206,0-4-1.794-4-4v-24c0-2.206,1.794-4,4-4H48 M48,206H24c-3.309,0-6,2.691-6,6v24c0,3.309,2.691,6,6,6h24c3.309,0,6-2.691,6-6v-24C54,208.691,51.309,206,48,206L48,206z"/>
  </g>
  <g fill="#FFF">
    <path d="M27 217H45V231H27z"/>
    <path d="M44,218v12H28v-12H44 M46,216h-2H28h-2v2v12v2h2h16h2v-2v-12V216L46,216z"/>
  </g>
  <path fill="none" stroke="#000" stroke-width="2" stroke-miterlimit="10" d="M12 227L60 227M12 233L60 233M12 215L60 215M12 221L60 221M39 248L39 200M45 248L45 200M27 248L27 200M33 248L33 200"/>
  <path fill="#FFF" d="M24,239c-1.654,0-3-1.346-3-3v-24c0-1.654,1.346-3,3-3h24c1.654,0,3,1.346,3,3v24c0,1.654-1.346,3-3,3H24 z"/>
  <path d="M48,210c1.103,0,2,0.897,2,2v24c0,1.103-0.897,2-2,2H24c-1.103,0-2-0.897-2-2v-24c0-1.103,0.897-2,2-2H48 M48,208H24 c-2.209,0-4,1.791-4,4v24c0,2.209,1.791,4,4,4h24c2.209,0,4-1.791,4-4v-24C52,209.791,50.209,208,48,208L48,208z"/>
  <g>
    <path d="M42,220v8H30v-8H42 M44,218h-2H30h-2v2v8v2h2h12h2v-2v-8V218L44,218z"/>
  </g>
  <g>
    <path fill="#FFF" stroke="#FFF" stroke-width="2" stroke-miterlimit="10" d="M12 165H60V169H12zM12 171H60V175H12zM12 153H60V157H12zM12 159H60V163H12z"/>
    <path fill="#FFF" stroke="#FFF" stroke-width="2" stroke-miterlimit="10" d="M37 140H41V188H37zM43 140H47V188H43zM25 140H29V188H25zM31 140H35V188H31z"/>
    <g fill="#FFF">
      <path d="M24,181c-2.757,0-5-2.243-5-5v-24c0-2.757,2.243-5,5-5h24c2.757,0,5,2.243,5,5v24c0,2.757-2.243,5-5,5H24 z"/>
      <path d="M48,148c2.206,0,4,1.794,4,4v24c0,2.206-1.794,4-4,4H24c-2.206,0-4-1.794-4-4v-24c0-2.206,1.794-4,4-4H48 M48,146H24c-3.309,0-6,2.691-6,6v24c0,3.309,2.691,6,6,6h24c3.309,0,6-2.691,6-6v-24C54,148.691,51.309,146,48,146L48,146z"/>
    </g>
    <g fill="#FFF">
      <path d="M27 157H45V171H27z"/>
      <path d="M44,158v12H28v-12H44 M46,156h-2H28h-2v2v12v2h2h16h2v-2v-12V156L46,156z"/>
    </g>
    <path fill="none" stroke="#000" stroke-width="2" stroke-miterlimit="10" d="M12 167L60 167M12 173L60 173M12 155L60 155M12 161L60 161M39 188L39 140M45 188L45 140M27 188L27 140M33 188L33 140"/>
    <path fill="#FFF" d="M24,179c-1.654,0-3-1.346-3-3v-24c0-1.654,1.346-3,3-3h24c1.654,0,3,1.346,3,3v24c0,1.654-1.346,3-3,3H24 z"/>
    <path d="M48,150c1.103,0,2,0.897,2,2v24c0,1.103-0.897,2-2,2H24c-1.103,0-2-0.897-2-2v-24c0-1.103,0.897-2,2-2H48 M48,148H24 c-2.209,0-4,1.791-4,4v24c0,2.209,1.791,4,4,4h24c2.209,0,4-1.791,4-4v-24C52,149.791,50.209,148,48,148L48,148z"/>
    <g>
      <path d="M42,160v8H30v-8H42 M44,158h-2H30h-2v2v8v2h2h12h2v-2v-8V158L44,158z"/>
    </g>
  </g>
  <g>
    <path fill="#FFF" stroke="#FFF" stroke-width="2" stroke-miterlimit="10" d="M74 225H122V229H74zM74 231H122V235H74zM74 213H122V217H74zM74 219H122V223H74z"/>
    <path fill="#FFF" stroke="#FFF" stroke-width="2" stroke-miterlimit="10" d="M99 200H103V248H99zM105 200H109V248H105zM87 200H91V248H87zM93 200H97V248H93z"/>
    <g fill="#FFF">
      <path d="M86,241c-2.757,0-5-2.243-5-5v-24c0-2.757,2.243-5,5-5h24c2.757,0,5,2.243,5,5v24c0,2.757-2.243,5-5,5H86 z"/>
      <path d="M110,208c2.206,0,4,1.794,4,4v24c0,2.206-1.794,4-4,4H86c-2.206,0-4-1.794-4-4v-24c0-2.206,1.794-4,4-4 H110 M110,206H86c-3.309,0-6,2.691-6,6v24c0,3.309,2.691,6,6,6h24c3.309,0,6-2.691,6-6v-24C116,208.691,113.309,206,110,206 L110,206z"/>
    </g>
    <g fill="#FFF">
      <path d="M89 217H107V231H89z"/>
      <path d="M106,218v12H90v-12H106 M108,216h-2H90h-2v2v12v2h2h16h2v-2v-12V216L108,216z"/>
    </g>
    <path fill="none" stroke="#000" stroke-width="2" stroke-miterlimit="10" d="M74 227L122 227M74 233L122 233M74 215L122 215M74 221L122 221M101 248L101 200M107 248L107 200M89 248L89 200M95 248L95 200"/>
    <path fill="#FFF" d="M86,239c-1.654,0-3-1.346-3-3v-24c0-1.654,1.346-3,3-3h24c1.654,0,3,1.346,3,3v24c0,1.654-1.346,3-3,3H86 z"/>
    <path d="M110,210c1.103,0,2,0.897,2,2v24c0,1.103-0.897,2-2,2H86c-1.103,0-2-0.897-2-2v-24c0-1.103,0.897-2,2-2H110 M110,208H86 c-2.209,0-4,1.791-4,4v24c0,2.209,1.791,4,4,4h24c2.209,0,4-1.791,4-4v-24C114,209.791,112.209,208,110,208L110,208z"/>
    <g>
      <path d="M104,220v8H92v-8H104 M106,218h-2H92h-2v2v8v2h2h12h2v-2v-8V218L106,218z"/>
    </g>
  </g>
  <g>
    <path fill="#FFF" stroke="#FFF" stroke-width="2" stroke-miterlimit="10" d="M134 225H182V229H134zM134 231H182V235H134zM134 213H182V217H134zM134 219H182V223H134z"/>
    <path fill="#FFF" stroke="#FFF" stroke-width="2" stroke-miterlimit="10" d="M159 200H163V248H159zM165 200H169V248H165zM147 200H151V248H147zM153 200H157V248H153z"/>
    <g fill="#FFF">
      <path d="M146,241c-2.757,0-5-2.243-5-5v-24c0-2.757,2.243-5,5-5h24c2.757,0,5,2.243,5,5v24c0,2.757-2.243,5-5,5 H146z"/>
      <path d="M170,208c2.206,0,4,1.794,4,4v24c0,2.206-1.794,4-4,4h-24c-2.206,0-4-1.794-4-4v-24c0-2.206,1.794-4,4-4 H170 M170,206h-24c-3.309,0-6,2.691-6,6v24c0,3.309,2.691,6,6,6h24c3.309,0,6-2.691,6-6v-24C176,208.691,173.309,206,170,206 L170,206z"/>
    </g>
    <g fill="#FFF">
      <path d="M149 217H167V231H149z"/>
      <path d="M166,218v12h-16v-12H166 M168,216h-2h-16h-2v2v12v2h2h16h2v-2v-12V216L168,216z"/>
    </g>
    <path fill="none" stroke="#000" stroke-width="2" stroke-miterlimit="10" d="M134 227L182 227M134 233L182 233M134 215L182 215M134 221L182 221M161 248L161 200M167 248L167 200M149 248L149 200M155 248L155 200"/>
    <path fill="#FFF" d="M146,239c-1.654,0-3-1.346-3-3v-24c0-1.654,1.346-3,3-3h24c1.654,0,3,1.346,3,3v24c0,1.654-1.346,3-3,3 H146z"/>
    <path d="M170,210c1.103,0,2,0.897,2,2v24c0,1.103-0.897,2-2,2h-24c-1.103,0-2-0.897-2-2v-24c0-1.103,0.897-2,2-2H170 M170,208 h-24c-2.209,0-4,1.791-4,4v24c0,2.209,1.791,4,4,4h24c2.209,0,4-1.791,4-4v-24C174,209.791,172.209,208,170,208L170,208z"/>
    <g>
      <path d="M164,220v8h-12v-8H164 M166,218h-2h-12h-2v2v8v2h2h12h2v-2v-8V218L166,218z"/>
    </g>
  </g>
  <g>
    <path fill="#FFF" stroke="#FFF" stroke-width="2" stroke-miterlimit="10" d="M196 225H244V229H196zM196 231H244V235H196zM196 213H244V217H196zM196 219H244V223H196z"/>
    <path fill="#FFF" stroke="#FFF" stroke-width="2" stroke-miterlimit="10" d="M221 200H225V248H221zM227 200H231V248H227zM209 200H213V248H209zM215 200H219V248H215z"/>
    <g fill="#FFF">
      <path d="M208,241c-2.757,0-5-2.243-5-5v-24c0-2.757,2.243-5,5-5h24c2.757,0,5,2.243,5,5v24c0,2.757-2.243,5-5,5 H208z"/>
      <path d="M232,208c2.206,0,4,1.794,4,4v24c0,2.206-1.794,4-4,4h-24c-2.206,0-4-1.794-4-4v-24c0-2.206,1.794-4,4-4 H232 M232,206h-24c-3.309,0-6,2.691-6,6v24c0,3.309,2.691,6,6,6h24c3.309,0,6-2.691,6-6v-24C238,208.691,235.309,206,232,206 L232,206z"/>
    </g>
    <g fill="#FFF">
      <path d="M211 217H229V231H211z"/>
      <path d="M228,218v12h-16v-12H228 M230,216h-2h-16h-2v2v12v2h2h16h2v-2v-12V216L230,216z"/>
    </g>
    <path fill="none" stroke="#000" stroke-width="2" stroke-miterlimit="10" d="M196 227L244 227M196 233L244 233M196 215L244 215M196 221L244 221M223 248L223 200M229 248L229 200M211 248L211 200M217 248L217 200"/>
    <path fill="#FFF" d="M208,239c-1.654,0-3-1.346-3-3v-24c0-1.654,1.346-3,3-3h24c1.654,0,3,1.346,3,3v24c0,1.654-1.346,3-3,3 H208z"/>
    <path d="M232,210c1.103,0,2,0.897,2,2v24c0,1.103-0.897,2-2,2h-24c-1.103,0-2-0.897-2-2v-24c0-1.103,0.897-2,2-2H232 M232,208 h-24c-2.209,0-4,1.791-4,4v24c0,2.209,1.791,4,4,4h24c2.209,0,4-1.791,4-4v-24C236,209.791,234.209,208,232,208L232,208z"/>
    <g>
      <path d="M226,220v8h-12v-8H226 M228,218h-2h-12h-2v2v8v2h2h12h2v-2v-8V218L228,218z"/>
    </g>
  </g>
  <g>
    <path fill="#FFF" stroke="#FFF" stroke-width="2" stroke-miterlimit="10" d="M196 165H244V169H196zM196 171H244V175H196zM196 153H244V157H196zM196 159H244V163H196z"/>
    <path fill="#FFF" stroke="#FFF" stroke-width="2" stroke-miterlimit="10" d="M221 140H225V188H221zM227 140H231V188H227zM209 140H213V188H209zM215 140H219V188H215z"/>
    <g fill="#FFF">
      <path d="M208,181c-2.757,0-5-2.243-5-5v-24c0-2.757,2.243-5,5-5h24c2.757,0,5,2.243,5,5v24c0,2.757-2.243,5-5,5 H208z"/>
      <path d="M232,148c2.206,0,4,1.794,4,4v24c0,2.206-1.794,4-4,4h-24c-2.206,0-4-1.794-4-4v-24c0-2.206,1.794-4,4-4 H232 M232,146h-24c-3.309,0-6,2.691-6,6v24c0,3.309,2.691,6,6,6h24c3.309,0,6-2.691,6-6v-24C238,148.691,235.309,146,232,146 L232,146z"/>
    </g>
    <g fill="#FFF">
      <path d="M211 157H229V171H211z"/>
      <path d="M228,158v12h-16v-12H228 M230,156h-2h-16h-2v2v12v2h2h16h2v-2v-12V156L230,156z"/>
    </g>
    <path fill="none" stroke="#000" stroke-width="2" stroke-miterlimit="10" d="M196 167L244 167M196 173L244 173M196 155L244 155M196 161L244 161M223 188L223 140M229 188L229 140M211 188L211 140M217 188L217 140"/>
    <path fill="#FFF" d="M208,179c-1.654,0-3-1.346-3-3v-24c0-1.654,1.346-3,3-3h24c1.654,0,3,1.346,3,3v24c0,1.654-1.346,3-3,3 H208z"/>
    <path d="M232,150c1.103,0,2,0.897,2,2v24c0,1.103-0.897,2-2,2h-24c-1.103,0-2-0.897-2-2v-24c0-1.103,0.897-2,2-2H232 M232,148 h-24c-2.209,0-4,1.791-4,4v24c0,2.209,1.791,4,4,4h24c2.209,0,4-1.791,4-4v-24C236,149.791,234.209,148,232,148L232,148z"/>
    <g>
      <path d="M226,160v8h-12v-8H226 M228,158h-2h-12h-2v2v8v2h2h12h2v-2v-8V158L228,158z"/>
    </g>
  </g>
  <g>
    <g fill="#FFF">
      <path d="M71.5 104.6L71.5 39.4 128 6.8 184.5 39.4 184.5 104.6 128 137.2"/>
      <path d="M128,8l55.5,32v64L128,136l-55.5-32V40L128,8 M128,5.691L70.5,38.845v66.311l57.5,33.153l57.5-33.153 V38.845L128,5.691L128,5.691z"/>
    </g>
    <path fill="#FFF" stroke="#FFF" stroke-width="2" stroke-miterlimit="10" d="M126 72H130V120H126z" stroke-linecap="round" stroke-linejoin="round"/>
    <path fill="#FFF" stroke="#FFF" stroke-width="2" stroke-miterlimit="10" d="M126 72H130V120H126z" stroke-linecap="round" stroke-linejoin="round"/>
    <path fill="#FFF" stroke="#FFF" stroke-width="2" stroke-miterlimit="10" d="M146.8 36H150.8V84H146.8z" transform="rotate(60 148.786 59.996)" stroke-linecap="round" stroke-linejoin="round"/>
    <path fill="#FFF" stroke="#FFF" stroke-width="2" stroke-miterlimit="10" d="M83.2 58H131.2V62H83.2z" transform="rotate(30 107.217 59.994)" stroke-linecap="round" stroke-linejoin="round"/>
    <path fill="#FFF" d="M73.5 103.4L73.5 40.6 128 9.2 182.5 40.6 182.5 103.4 128 134.8"/>
    <path d="M128,10.309l53.5,30.847v61.689L128,133.691l-53.5-30.847V41.155L128,10.309 M128,8L72.5,40v64l55.5,32l55.5-32V40L128,8 L128,8z"/>
    <path fill="#FFF" stroke="#000" stroke-width="2" stroke-miterlimit="10" d="M128 72L128 120M128 72L128 120M128 72L169.6 48M128 72L86.4 48" stroke-linecap="round" stroke-linejoin="round"/>
  </g>
  <g>
    <defs>
      <path id="a" d="M77.8 96.7L77.9 57.6 122.5 83.3 122.4 122.4z"/>
    </defs>
    <clipPath id="b">
      <use xlink:href="#a" overflow="visible"/>
    </clipPath>
    <g clip-path="url(#b)">
      <path fill="#FFF" d="M102.525,108.201c-0.103,0.145-0.251,0.227-0.427,0.246c0.632,0.555,1.653,1.286,1.842,1.416 c0.017,0.013,0.034,0.025,0.052,0.038l0.012-0.044C103.423,109.433,102.914,108.866,102.525,108.201 M102.181,85.565 c-0.046-0.026-0.095-0.052-0.147-0.076l-0.421-0.244l-0.013,0.007l-0.421-0.243c-0.063-0.036-0.133-0.082-0.202-0.121 c-0.197-0.114-0.393-0.187-0.432,0.101c-0.033,0.37-0.085,0.759,0.278,1.233c0.166,0.235,0.364,0.438,0.529,0.629 c0.471,0.512,0.796,0.901,1.012,1.026c0.285,0.164,0.379-0.131,0.364-1.21C102.729,86.111,102.571,85.791,102.181,85.565 M89.169,75.667l-0.166-0.162c0.051-0.081,0.103-0.168,0.154-0.257c0.122-0.208,0.237-0.406,0.359-0.585 c0.058,0.048,0.121,0.106,0.191,0.184L89.169,75.667 M89.384,73.458c-0.288-0.166-0.495-0.122-0.632,0.058 c-0.167,0.242-0.314,0.487-0.462,0.732c-0.643,1.084-0.643,1.084,0.684,2.423l0.121,0.122 c0.101,0.114,0.196,0.194,0.284,0.245c0.206,0.119,0.371,0.072,0.483-0.11l0.899-1.376c0.096-0.15,0.186-0.333,0.001-0.624 c-0.395-0.588-0.796-1.114-1.307-1.423C89.432,73.487,89.408,73.472,89.384,73.458 M106.47,90.586l0.004-1.6 c0.101,0.499,0.24,1.05,0.564,1.568l-0.006-0.003C106.879,90.551,106.675,90.543,106.47,90.586 M104.097,72.689 c-0.779-0.45-1.552-0.756-2.3-0.909c-1.783-0.353-2.764,0.58-2.571,2.425l0.006,0.033c0.013,0.11,0.012,0.25,0.012,0.404 c0.006,0.172,0.005,0.371,0.024,0.594c0.092,1.493,0.068,2.972-0.063,4.504l-0.191-0.206 c-0.498-0.53-1.014-1.085-1.518-1.648l-0.013-0.015c-2.079-2.258-4.425-4.818-7.087-6.355 c-0.249-0.144-0.498-0.28-0.747-0.402l-0.051-0.074c-0.644-0.871-1.313-1.676-1.957-2.452 c-0.497-0.596-0.969-1.162-1.421-1.746l-0.019-0.026c-0.313-0.386-0.6-0.655-0.887-0.82 c-0.39-0.225-0.933-0.362-1.312,0.271c-0.128,0.19-0.25,0.392-0.373,0.593c-0.476,0.762-0.964,1.553-1.49,2.241 l-0.006,0.011c-0.109,0.157-0.449,0.615-0.266,1.463c0.164,0.749,0.617,1.348,0.941,1.727 c2.505,2.996,5.285,5.887,8.506,8.842c0.191,0.184,0.37,0.323,0.549,0.427c0.313,0.181,0.563,0.214,0.767,0.193l0.038,0.191 c0.101,0.41,0.342,1.042,0.935,1.723l0.025,0.029c0.172,0.195,0.344,0.404,0.535,0.632c0.434,0.529,0.912,1.114,1.479,1.596 c0.222,0.569,0.58,0.989,0.764,1.206l0.089,0.103c0.784,0.996,1.6,1.872,2.391,2.71c0.631,0.673,1.224,1.31,1.779,1.975 l0.019,0.026c0.051,0.066,0.172,0.342,0.216,0.69c0.037,0.352-0.033,0.517-0.059,0.539l-0.026,0.007 c-0.653,0.35-0.611,1.256-0.581,1.854l0.006,0.128l0,0.044c0.013,0.14,0,0.264-0.014,0.418 c-0.033,0.305-0.085,0.803,0.162,1.482c-0.141,0.264-0.155,0.579-0.118,0.88l-0.025,0.015 c-0.225,0.194-0.385,0.467-0.479,0.795c0.094,0.074,0.199,0.171,0.31,0.297c0.258,0.035,0.516,0.107,0.774,0.214 c0.043-0.063,0.094-0.121,0.153-0.171c0.167-0.139,0.314-0.282,0.245-0.667c-0.076-0.323,0.027-0.477,0.194-0.586 c0.122-0.069,0.16-0.157,0.001-0.418c-0.484-0.757-0.176-1.035-0.238-1.806c-0.024-0.55-0.08-1.097,0.285-1.29 c0.666-0.313,0.428-2.229-0.356-3.16c-1.332-1.599-2.818-2.964-4.137-4.645c-0.236-0.305-0.53-0.541-0.567-0.966 c0-0.169-0.121-0.305-0.242-0.39c-0.824-0.563-1.447-1.504-2.149-2.284c-0.484-0.559-0.604-1.091-0.36-1.494 c0.244-0.417,0.526-0.813,0.732-1.252c0.148-0.289,0.376-0.376,0.657-0.214c0.132,0.077,0.276,0.208,0.43,0.4 c0.694,0.857,1.479,1.523,2.033,2.54c0.069,0.121,0.157,0.252,0.236,0.298c0.058,0.033,0.113,0.022,0.154-0.073 c0.122-0.238,0.461-0.321,0.168-0.879c-0.044-0.107-0.121-0.181-0.204-0.258c-0.969-1.059-1.932-2.093-2.875-3.137 c-0.105-0.114-0.197-0.189-0.283-0.239c-0.211-0.122-0.385-0.087-0.631-0.083c-0.965,0.06-1.128,1.163-1.661,1.76 c-0.167,0.189-0.322,0.292-0.567,0.15c-0.076-0.044-0.161-0.111-0.258-0.208c-2.883-2.642-5.688-5.481-8.347-8.662 c-0.503-0.6-0.624-0.978-0.296-1.428c0.68-0.885,1.278-1.907,1.888-2.877c0.129-0.216,0.268-0.282,0.455-0.174 c0.111,0.064,0.24,0.191,0.396,0.385c1.083,1.404,2.269,2.699,3.345,4.158c0.145,0.205,0.313,0.424,0.515,0.541 c0.03,0.017,0.06,0.032,0.091,0.044c0.248,0.121,0.493,0.251,0.736,0.391c2.389,1.379,4.537,3.684,6.69,6.035 c0.771,0.857,1.549,1.674,2.321,2.508c0.159,0.179,0.291,0.316,0.396,0.377c0.161,0.093,0.259,0.004,0.295-0.397 c0.19-1.727,0.253-3.55,0.137-5.469c-0.037-0.367,0.002-0.697-0.048-1.071c-0.162-1.556,0.919-1.798,1.91-1.601 c0.667,0.141,1.331,0.411,1.998,0.797c0.582,0.335,1.166,0.758,1.757,1.26c0.752,0.655,1.255,1.533,1.79,2.4 c0.216,0.346,0.19,0.69,0.189,1.028c-0.005,1.599,0.029,3.221-0.014,4.798c-0.003,0.976,0.333,2.103,0.151,2.976 l0.044,0.165c0.163,0.157,0.334,0.276,0.508,0.376c0.212,0.123,0.427,0.217,0.635,0.32c0.288,0.137,0.358-0.072,0.397-0.329 c0.04-0.389,0.066-0.821,0.074-1.25c0.001-0.418,0.174-0.539,0.551-0.321l6.353,3.667c0.728,0.449,1.007,1.279,0.698,1.851 c-0.245,0.484-0.725,0.559-1.179,0.716c-2.145,0.849-4.606,0.684-7.442-0.718c-0.159-0.081-0.293-0.15-0.407-0.216 c-0.586-0.339-0.656-0.57-0.835-1.559c-0.11-0.608-0.376-0.854-0.673-1.025c-0.076-0.043-0.153-0.083-0.231-0.122 c-0.077-0.039-0.15-0.076-0.221-0.117c-0.029-0.017-0.058-0.034-0.086-0.053c-0.013-0.008-0.026-0.016-0.039-0.023 c-0.43-0.249-0.588,0.013-0.602,0.462l-0.007,2.436c-0.001,0.278-0.002,0.653,0.26,0.907 c0.051,0.054,0.104,0.094,0.157,0.125c0.091,0.052,0.184,0.078,0.277,0.104c0.096,0.026,0.191,0.052,0.286,0.106 c0.094,0.054,0.187,0.137,0.276,0.276c0.046-0.348,0.641-0.226,0.896-0.247c0.486-0.028,1.017,0.029,1.528,0.008 c0.131-0.001,0.246,0.026,0.35,0.086c0.184,0.106,0.33,0.315,0.46,0.654c0.336,0.797,0.603,1.604,0.843,2.397 c0.095,0.334,0.12,0.628-0.174,0.598c-0.844-0.068-1.574,0.208-2.52-0.168l-0.121-0.07c-0.041,0.866-0.788,0.31-1.216,0.408 c-0.384,0.087-0.508,1.007-0.126,1.573c0.332,0.47,0.362,0.819,0.386,1.237c0.049,0.771-0.057,2.201-0.102,2.227 c-0.769,0.394,0.08,1.375,0.359,2.096c0.037,0.095,0.075,0.23,0.109,0.386l0.998,0.576c-0.081-0.44-0.187-0.824-0.27-1.038 c-0.121-0.312-0.267-0.587-0.395-0.83l-0.038-0.066c0.205-0.175,0.244-0.513,0.291-1.331 c0.014-0.286,0.048-0.994,0.011-1.537c-0.019-0.407-0.061-1.145-0.608-2.034V96.95l0.154,0.03 c0.268,0.059,0.856,0.178,1.183-0.272c0.575,0.148,1.068,0.117,1.516,0.088c0.269-0.014,0.519-0.032,0.761-0.009 c0.614,0.061,1.069-0.456,0.702-1.733l-0.006-0.025c-0.203-0.661-0.444-1.425-0.761-2.225 c2.051,0.604,3.957,0.557,5.692-0.124c0.07-0.025,0.141-0.051,0.211-0.069c0.416-0.134,0.935-0.291,1.237-0.888 c0.29-0.568,0.279-1.331-0.039-2.109c-0.305-0.749-0.853-1.404-1.51-1.813l-0.032-0.019l-6.353-3.668 c-0.645-0.372-1.144-0.3-1.375,0.154c-0.012-0.147-0.018-0.275-0.018-0.4c0.022-1.068,0.019-2.165,0.015-3.217 c-0.005-0.539-0.003-1.067-0.001-1.595v-0.081c0.001-0.396,0.009-1.133-0.506-1.96l-0.127-0.199 c-0.535-0.881-1.146-1.881-2.07-2.687l-0.02-0.019C105.399,73.537,104.735,73.058,104.097,72.689"/>
      <path d="M101.178,85.01l0.421,0.243l0.013-0.007l0.421,0.244c0.053,0.024,0.102,0.049,0.147,0.076 c0.391,0.226,0.548,0.546,0.546,1.104c0.015,1.079-0.079,1.374-0.364,1.21c-0.216-0.125-0.541-0.514-1.012-1.026 c-0.166-0.191-0.363-0.394-0.529-0.629c-0.363-0.474-0.311-0.863-0.278-1.233c0.039-0.288,0.234-0.215,0.432-0.101 C101.045,84.929,101.115,84.974,101.178,85.01 M89.379,77.037c-0.088-0.05-0.183-0.131-0.284-0.245l-0.121-0.122 c-1.327-1.338-1.327-1.338-0.684-2.423c0.148-0.245,0.295-0.491,0.462-0.732c0.137-0.179,0.344-0.224,0.632-0.058 c0.023,0.014,0.047,0.029,0.072,0.045c0.511,0.309,0.912,0.835,1.307,1.423c0.185,0.29,0.095,0.474-0.001,0.624 l-0.899,1.376C89.75,77.109,89.584,77.156,89.379,77.037 M104.092,73.808c-0.667-0.386-1.332-0.656-1.998-0.797 c-0.991-0.197-2.072,0.045-1.91,1.601c0.05,0.374,0.011,0.705,0.048,1.071c0.117,1.919,0.054,3.742-0.137,5.469 c-0.036,0.402-0.134,0.49-0.295,0.397c-0.105-0.061-0.237-0.199-0.396-0.377c-0.771-0.834-1.549-1.651-2.321-2.508 c-2.153-2.351-4.301-4.655-6.69-6.035c-0.243-0.14-0.488-0.271-0.736-0.391c-0.031-0.012-0.061-0.027-0.091-0.044 c-0.202-0.117-0.371-0.335-0.515-0.541c-1.076-1.459-2.262-2.754-3.345-4.158c-0.155-0.194-0.284-0.321-0.396-0.385 c-0.187-0.108-0.326-0.042-0.455,0.174c-0.61,0.97-1.208,1.992-1.888,2.877c-0.328,0.451-0.207,0.829,0.296,1.428 c2.658,3.181,5.464,6.021,8.347,8.662c0.097,0.096,0.182,0.164,0.258,0.208c0.245,0.142,0.4,0.04,0.567-0.15 c0.532-0.597,0.695-1.701,1.661-1.76c0.246-0.004,0.42-0.039,0.631,0.083c0.086,0.05,0.178,0.125,0.283,0.239 c0.943,1.044,1.906,2.078,2.875,3.137c0.083,0.077,0.16,0.151,0.204,0.258c0.292,0.558-0.046,0.642-0.168,0.879 c-0.041,0.095-0.096,0.106-0.154,0.073c-0.079-0.046-0.167-0.177-0.236-0.298c-0.554-1.017-1.338-1.683-2.033-2.54 c-0.153-0.192-0.297-0.324-0.43-0.4c-0.281-0.162-0.509-0.075-0.657,0.214c-0.206,0.439-0.488,0.835-0.732,1.252 c-0.245,0.403-0.124,0.935,0.36,1.494c0.702,0.78,1.325,1.72,2.149,2.284c0.121,0.085,0.242,0.221,0.242,0.39 c0.037,0.426,0.331,0.661,0.567,0.966c1.319,1.68,2.805,3.045,4.137,4.645c0.784,0.93,1.022,2.846,0.356,3.16 c-0.365,0.193-0.309,0.74-0.285,1.29c0.062,0.771-0.246,1.049,0.238,1.806c0.159,0.261,0.121,0.349-0.001,0.418 c-0.167,0.11-0.27,0.264-0.194,0.586c0.069,0.385-0.078,0.528-0.245,0.667c-0.059,0.05-0.109,0.107-0.153,0.171 c0.157,0.065,0.314,0.143,0.471,0.233c1.028,0.594,1.595,1.442,1.887,2.052c0.057,0.121,0.108,0.247,0.159,0.364 c0.762-0.375,1.683-0.263,2.493,0.205c0.383,0.221,0.734,0.504,1.046,0.832c0.128,0.022,0.262,0.07,0.403,0.151l0.123,0.071 c-0.035-0.156-0.072-0.291-0.109-0.386c-0.279-0.72-1.127-1.702-0.359-2.096c0.045-0.026,0.151-1.456,0.102-2.227 c-0.024-0.418-0.055-0.767-0.386-1.237c-0.382-0.566-0.258-1.486,0.126-1.573c0.429-0.098,1.175,0.458,1.216-0.408 l0.121,0.07c0.946,0.377,1.675,0.1,2.52,0.168c0.294,0.03,0.269-0.263,0.174-0.598c-0.24-0.793-0.507-1.601-0.843-2.397 c-0.13-0.338-0.276-0.548-0.46-0.654c-0.104-0.06-0.219-0.087-0.35-0.086c-0.512,0.021-1.042-0.036-1.528-0.008 c-0.256,0.021-0.851-0.102-0.896,0.247c-0.089-0.14-0.182-0.222-0.276-0.276c-0.094-0.055-0.19-0.081-0.286-0.106 c-0.093-0.026-0.186-0.052-0.277-0.104c-0.053-0.031-0.106-0.071-0.157-0.125c-0.262-0.254-0.261-0.628-0.26-0.907 l0.007-2.436c0.014-0.449,0.171-0.71,0.602-0.462c0.013,0.007,0.026,0.015,0.039,0.023c0.028,0.019,0.057,0.036,0.086,0.053 c0.07,0.041,0.144,0.078,0.221,0.117c0.078,0.039,0.156,0.079,0.231,0.122c0.297,0.172,0.563,0.417,0.673,1.025 c0.179,0.989,0.249,1.22,0.835,1.559c0.114,0.066,0.249,0.136,0.407,0.216c2.835,1.402,5.297,1.567,7.442,0.718 c0.454-0.157,0.934-0.232,1.179-0.716c0.309-0.571,0.03-1.401-0.698-1.851l-6.353-3.667 c-0.377-0.218-0.55-0.097-0.551,0.321c-0.008,0.429-0.034,0.862-0.074,1.25c-0.039,0.257-0.11,0.466-0.397,0.329 c-0.208-0.104-0.422-0.198-0.635-0.32c-0.173-0.1-0.345-0.219-0.508-0.376l-0.044-0.165c0.182-0.873-0.154-2-0.151-2.976 c0.043-1.577,0.009-3.199,0.014-4.798c0.001-0.337,0.027-0.682-0.189-1.028c-0.535-0.867-1.038-1.745-1.79-2.4 C105.258,74.566,104.674,74.143,104.092,73.808"/>
      <path fill="#FFF" d="M105.878,105.316v0.007c-0.293-0.169-0.709-0.072-0.942,0.756c-0.175,0.627-0.086,0.943-0.029,1.071 c0.032,0.048,0.083,0.166,0.287,0.283c0.204,0.118,0.39,0.152,0.633,0.013l0.472-1.748 C106.191,105.534,106.057,105.419,105.878,105.316 M87.746,94.84c-0.204-0.118-0.421-0.141-0.69-0.046l-0.478,1.745 l-0.007,0.003c0.102,0.147,0.243,0.28,0.396,0.368c0.422,0.243,0.787-0.06,0.994-0.823c0.174-0.597,0.105-0.88,0.048-0.994 C87.988,95.054,87.944,94.955,87.746,94.84 M114.479,110.193c-0.268-0.155-0.518-0.145-0.716,0.021l1.06,0.612 c0.013-0.132,0-0.257-0.038-0.345C114.721,110.349,114.581,110.252,114.479,110.193 M93.035,101.421l0.478-1.782 l0.013-0.021L93.035,101.421 M94.15,102.947c-0.077-0.044-0.146-0.136-0.191-0.228c-0.051-0.096-0.057-0.194-0.044-0.268 l1.351-4.931c0.026-0.109,0.122-0.142,0.23-0.08l1.552,0.896l0.178,0.213c0.051,0.103,0.063,0.191,0.05,0.272l-1.351,4.93 c-0.032,0.099-0.122,0.143-0.243,0.073l0.013,0.015L94.15,102.947 M87.214,92.998c0.384-0.028,0.851,0.021,1.335,0.3 c0.556,0.321,1.002,0.806,1.282,1.401c0.388,0.813,0.462,1.744,0.197,2.693c-0.504,1.891-1.912,2.203-3.048,1.547 c-0.319-0.185-0.606-0.46-0.861-0.813l-0.071,0.356v0.022l-0.387,1.415c-0.033,0.099-0.123,0.135-0.244,0.065l0.007-0.011 l-1.539-0.888c-0.077-0.044-0.153-0.125-0.198-0.217c-0.05-0.103-0.063-0.198-0.044-0.268l1.842-6.719 c0.026-0.11,0.122-0.143,0.23-0.08l1.271,0.734l0.166,0.184l0.063,0.243V92.998 M104.422,109.01 c-0.587-0.339-1.059-0.854-1.358-1.475c-0.4-0.827-0.462-1.781-0.19-2.763c0.491-1.803,1.899-2.107,2.984-1.48 c0.485,0.28,0.849,0.652,1.128,1.159l0.109-0.158c0.039-0.059,0.116-0.073,0.211-0.017l1.207,0.696 c0.083,0.048,0.153,0.132,0.198,0.224c0.044,0.1,0.057,0.188,0.038,0.264l-1.835,6.73c-0.026,0.103-0.122,0.135-0.23,0.073 v-0.015l-1.564-0.903c-0.07-0.041-0.147-0.122-0.179-0.206c-0.038-0.096-0.076-0.206-0.05-0.272l0.4-1.466v-0.022 l0.039-0.095C105.029,109.272,104.709,109.176,104.422,109.01 M113.514,114.274l0.006-0.011 c-0.785-0.453-1.417-1.126-1.785-1.913c-0.414-0.849-0.507-1.755-0.268-2.616c0.491-1.803,2.065-2.012,3.297-1.3 c0.85,0.49,1.282,1.13,1.499,1.593c0.375,0.775,0.443,1.637,0.204,2.499c-0.059,0.275-0.181,0.557-0.264,0.685 c-0.045,0.055-0.122,0.069-0.211,0.018l-2.663-1.537c0.019,0.15,0.057,0.276,0.12,0.393 c0.121,0.209,0.325,0.401,0.606,0.563c0.313,0.181,0.639,0.266,1.029,0.263c0.03,0.002,0.067,0.015,0.105,0.037 c0.034,0.02,0.068,0.047,0.099,0.082c0.064,0.066,0.121,0.166,0.134,0.253l0.265,1.233c0.031,0.136-0.02,0.238-0.11,0.253 C114.945,114.828,114.185,114.661,113.514,114.274 M92.928,96.487c0.441-0.179,0.928-0.133,1.368,0.121 c0.307,0.177,0.504,0.335,0.683,0.534c0.108,0.136,0.166,0.338,0.107,0.437l-0.624,1.176 c-0.042,0.077-0.13,0.089-0.22,0.038c-0.021-0.012-0.041-0.027-0.061-0.046c-0.166-0.147-0.281-0.25-0.466-0.357 c-0.134-0.078-0.606-0.277-1.094,0.235l-0.737,2.801c-0.032,0.099-0.122,0.142-0.243,0.072l-1.539-0.888 c-0.07-0.041-0.147-0.136-0.178-0.221c-0.064-0.103-0.064-0.198-0.051-0.271l1.351-4.93c0.02-0.114,0.122-0.143,0.23-0.08 l1.271,0.734l0.179,0.198c0.044,0.099,0.063,0.184,0.05,0.257L92.928,96.487 M99.785,100.358 c0.416-0.062,0.934-0.042,1.534,0.305c0.511,0.295,0.88,0.685,1.116,1.174c0.305,0.632,0.341,1.373,0.115,2.204 l-0.833,3.062c-0.026,0.103-0.122,0.142-0.23,0.08l-1.551-0.896c-0.083-0.048-0.153-0.14-0.198-0.231 s-0.057-0.194-0.038-0.264l0.782-2.863c0.123-0.436,0.066-0.594,0.066-0.594c-0.02-0.019-0.064-0.066-0.166-0.125 c-0.243-0.14-0.435-0.14-0.767-0.053l-0.892,3.218c-0.026,0.103-0.122,0.143-0.23,0.08l-1.545-0.892 c-0.077-0.044-0.141-0.133-0.191-0.229c-0.051-0.095-0.057-0.194-0.044-0.268l1.351-4.93c0.026-0.11,0.122-0.143,0.23-0.08 l1.271,0.733l0.178,0.198l0.063,0.243L99.785,100.358 M119.328,111.729c0.442-0.179,0.928-0.133,1.368,0.122 c0.3,0.173,0.498,0.331,0.683,0.534c0.121,0.143,0.172,0.342,0.12,0.444l-0.624,1.175c-0.042,0.078-0.13,0.09-0.224,0.036 c-0.021-0.012-0.043-0.028-0.064-0.047c-0.166-0.147-0.274-0.247-0.453-0.35c-0.14-0.081-0.606-0.277-1.094,0.235 l-0.75,2.793c-0.032,0.099-0.122,0.143-0.243,0.072l0.006,0.004l-1.545-0.892c-0.077-0.044-0.147-0.136-0.198-0.232 c-0.038-0.088-0.057-0.194-0.038-0.264l1.344-4.934c0.026-0.109,0.122-0.142,0.23-0.08l1.264,0.73 c0.07,0.041,0.134,0.114,0.179,0.198c0.051,0.103,0.07,0.188,0.063,0.265L119.328,111.729 M81.297,93.557 c0.3,0.173,0.683,0.329,0.767-0.005c0.039-0.11,0-0.206-0.483-0.742l-0.835-0.938c-0.854-0.926-1.216-2.024-0.958-2.918 c0.323-1.225,1.661-1.51,3.11-0.674c0.875,0.505,1.633,1.34,2.072,2.291c0.076,0.162,0.063,0.316-0.033,0.349l-1.031,0.521 c-0.048,0.028-0.108,0.02-0.168-0.015c-0.06-0.034-0.119-0.096-0.163-0.177c-0.325-0.533-0.625-0.845-1.027-1.077 c-0.185-0.107-0.606-0.314-0.697,0.016c-0.032,0.106,0.077,0.25,0.573,0.787l0.083,0.092l0.714,0.787 c0.88,0.964,1.209,1.955,0.938,2.908c-0.168,0.601-0.565,1.003-1.129,1.141c-0.608,0.149-1.336,0-2.134-0.461l0.006-0.011 c-0.97-0.561-1.832-1.484-2.359-2.545c-0.076-0.154-0.069-0.319,0.027-0.359l1.172-0.558 c0.045-0.026,0.109-0.018,0.179,0.022l0.166,0.184C80.41,92.78,80.869,93.31,81.297,93.557 M109.798,112.114 c-0.498-0.288-0.862-0.659-1.084-1.111c-0.261-0.554-0.291-1.174-0.09-1.911l1.447-5.33 c0.039-0.095,0.135-0.135,0.243-0.073l1.545,0.892c0.07,0.041,0.147,0.136,0.191,0.228s0.063,0.191,0.044,0.268 l-1.473,5.366l-0.02,0.128l0.096,0.041c0.017,0.006,0.033,0.014,0.049,0.023c0.056,0.032,0.112,0.085,0.161,0.165 c0.058,0.092,0.083,0.188,0.07,0.268l-0.125,1.25c-0.013,0.095-0.071,0.15-0.154,0.139 c-0.147-0.019-0.454-0.101-0.888-0.351L109.798,112.114 M96.46,97.77c-0.345-0.199-0.625-0.501-0.791-0.846 c-0.153-0.316-0.196-0.657-0.119-0.943c0.155-0.579,0.712-0.713,1.338-0.352c0.338,0.195,0.606,0.489,0.784,0.835 c0.152,0.323,0.196,0.672,0.119,0.95c-0.155,0.572-0.711,0.706-1.331,0.349V97.77 M96.892,94.514 c-1.072-0.619-2.007-0.358-2.272,0.643c-0.045,0.15-0.065,0.323-0.072,0.495c-0.077-0.052-0.16-0.1-0.249-0.151 c-0.351-0.203-0.715-0.325-1.073-0.355c-0.191-0.213-0.364-0.342-0.498-0.42l-1.271-0.733 c-0.447-0.258-0.843-0.208-1.055,0.097c-0.458-0.809-1.108-1.479-1.855-1.91c-0.357-0.207-0.735-0.343-1.112-0.399 c-0.14-0.147-0.293-0.265-0.446-0.354l-1.073-0.619c-0.038-0.14-0.089-0.279-0.152-0.418l-0.006-0.019 c-0.623-1.344-1.662-2.51-2.856-3.199c-1.903-1.099-3.605-0.7-4.051,0.946c-0.22,0.792-0.12,1.717,0.268,2.646l-1.198,0.565 c-0.48,0.215-0.54,1.011-0.126,1.83c0.687,1.374,1.771,2.58,2.977,3.313l0.121,0.077c0.696,0.402,1.367,0.62,1.974,0.647 l-0.161,0.59c-0.097,0.37-0.015,0.858,0.226,1.343c0.229,0.463,0.573,0.853,0.95,1.07l1.379,0.796l0.153,0.103 c0.549,0.317,1.016,0.183,1.178-0.334l0.219-0.814l0.167,0.104c0.664,0.383,1.412,0.55,2.09,0.383l0.102,0.228 c0.223,0.452,0.573,0.845,0.931,1.051l1.539,0.889c0.542,0.313,1.016,0.183,1.171-0.331l0.013-0.029l0.148-0.561 c-0.078,0.374,0.004,0.833,0.22,1.281c0.229,0.47,0.586,0.875,0.957,1.088l1.545,0.892c0.096,0.056,0.185,0.093,0.275,0.115 c0.121,0.04,0.242,0.052,0.345,0.037c0.191,0.243,0.415,0.445,0.632,0.57l1.545,0.892c0.269,0.155,0.517,0.196,0.722,0.138 c0.204,0.302,0.459,0.544,0.721,0.695l1.545,0.892c0.223,0.129,0.438,0.181,0.622,0.161 c0.175-0.019,0.324-0.102,0.427-0.246c0.388,0.665,0.898,1.231,1.479,1.655l-0.012,0.044l-0.033,0.12 c-0.064,0.228-0.091,0.616,0.15,1.211c0.203,0.514,0.592,0.988,1.007,1.228l1.411,0.814l0.153,0.104 c0.543,0.313,1.036,0.157,1.171-0.367l0.355-1.301c0.325,0.503,0.822,1.077,1.588,1.52l0.172,0.084 c0.53,0.284,0.895,0.362,1.08,0.381c0.198,0.026,0.365-0.018,0.499-0.124c0.497,0.699,1.128,1.291,1.843,1.733l0.121,0.077 c0.684,0.395,1.431,0.621,2.115,0.641c0.235,0.415,0.554,0.753,0.88,0.941l1.539,0.889l0.051,0.029 c0.523,0.28,0.972,0.143,1.12-0.36l0.711-2.632c0.122-0.099,0.211-0.106,0.243-0.102c0.032,0.019,0.064,0.044,0.153,0.125 l0.013,0.015c0.102,0.088,0.21,0.165,0.313,0.224c0.473,0.273,0.908,0.208,1.101-0.173l0.624-1.168l0.026-0.043 c0.238-0.539-0.021-1.475-0.583-2.122l-0.032-0.041c-0.325-0.357-0.645-0.607-1.084-0.861 c-0.352-0.203-0.722-0.329-1.074-0.355c-0.159-0.173-0.332-0.324-0.511-0.427l-1.264-0.73 c-0.454-0.262-0.85-0.204-1.056,0.111c-0.363-0.613-1-1.43-2.028-2.023c-0.645-0.372-1.341-0.554-1.987-0.508l0.252-0.927 c0.084-0.341,0.021-0.804-0.188-1.255l-0.063-0.14c-0.242-0.448-0.574-0.816-0.918-1.015l-1.545-0.892 c-0.517-0.299-0.984-0.187-1.158,0.279l-0.02,0.077l-0.316,1.147c-0.095-0.092-0.197-0.166-0.306-0.229l-0.085-0.049 l-0.998-0.576l-0.123-0.071c-0.141-0.081-0.275-0.129-0.403-0.151c-0.313-0.328-0.663-0.611-1.046-0.832 c-0.811-0.468-1.731-0.581-2.493-0.205c-0.051-0.117-0.102-0.243-0.159-0.364c-0.292-0.61-0.859-1.458-1.887-2.052 c-0.157-0.09-0.314-0.168-0.471-0.233c-0.258-0.107-0.516-0.179-0.774-0.214c-0.111-0.125-0.216-0.223-0.31-0.297 c-0.074-0.059-0.142-0.103-0.201-0.137l-0.824-0.476c0.13-0.564,0.029-1.269-0.282-1.941l-0.051-0.096 C98.04,95.449,97.505,94.868,96.892,94.514"/>
      <path d="M97.047,98.337l-1.552-0.896c-0.108-0.063-0.205-0.03-0.23,0.08l-1.351,4.931c-0.013,0.073-0.007,0.172,0.044,0.268 c0.044,0.092,0.114,0.184,0.191,0.228l1.545,0.892l-0.013-0.015c0.122,0.07,0.211,0.026,0.243-0.073l1.351-4.93 c0.013-0.081,0-0.169-0.05-0.272L97.047,98.337 M86.966,96.911c-0.153-0.088-0.293-0.221-0.396-0.368l0.007-0.003 l0.478-1.745c0.269-0.095,0.486-0.072,0.69,0.046c0.198,0.114,0.243,0.213,0.262,0.254c0.057,0.114,0.126,0.396-0.048,0.994 C87.753,96.851,87.388,97.154,86.966,96.911 M88.549,93.298c-0.485-0.28-0.952-0.329-1.335-0.3v-0.037l-0.063-0.243 l-0.166-0.184l-1.271-0.734c-0.109-0.063-0.205-0.03-0.23,0.08L83.642,98.6c-0.019,0.07-0.006,0.165,0.044,0.268 c0.044,0.092,0.121,0.173,0.198,0.217l1.539,0.888l-0.007,0.011c0.121,0.07,0.211,0.034,0.244-0.065l0.387-1.415v-0.022 l0.071-0.356c0.255,0.353,0.542,0.629,0.861,0.813c1.136,0.656,2.544,0.344,3.048-1.547 c0.265-0.949,0.191-1.881-0.197-2.693C89.551,94.104,89.105,93.619,88.549,93.298 M105.194,107.435 c-0.204-0.118-0.255-0.235-0.287-0.283c-0.057-0.128-0.146-0.444,0.029-1.071c0.232-0.828,0.648-0.926,0.942-0.756v-0.007 c0.179,0.103,0.313,0.218,0.421,0.383l-0.472,1.748C105.584,107.586,105.398,107.553,105.194,107.435 M105.858,103.292 c-1.085-0.627-2.493-0.322-2.984,1.48c-0.271,0.982-0.21,1.937,0.19,2.763c0.299,0.621,0.771,1.136,1.358,1.475 c0.287,0.166,0.607,0.263,0.907,0.274l-0.039,0.095v0.022l-0.4,1.466c-0.026,0.066,0.012,0.176,0.05,0.272 c0.032,0.084,0.109,0.166,0.179,0.206l1.564,0.903v0.015c0.108,0.063,0.205,0.03,0.23-0.073l1.835-6.73 c0.02-0.077,0.007-0.165-0.038-0.264c-0.044-0.092-0.115-0.176-0.198-0.224l-1.207-0.696 c-0.096-0.056-0.172-0.042-0.211,0.017l-0.109,0.158C106.707,103.943,106.343,103.571,105.858,103.292 M113.762,110.214 c0.199-0.165,0.448-0.175,0.716-0.021c0.102,0.059,0.243,0.155,0.306,0.288c0.038,0.088,0.05,0.212,0.038,0.345 L113.762,110.214 M114.765,108.434c-1.232-0.711-2.806-0.503-3.297,1.3c-0.239,0.861-0.146,1.768,0.268,2.616 c0.369,0.786,1,1.459,1.785,1.913l-0.006,0.011c0.67,0.387,1.431,0.554,2.064,0.494c0.09-0.015,0.141-0.117,0.11-0.253 l-0.265-1.233c-0.013-0.088-0.07-0.188-0.134-0.253c-0.03-0.035-0.064-0.062-0.099-0.082 c-0.038-0.022-0.075-0.035-0.105-0.037c-0.391,0.003-0.716-0.083-1.029-0.263c-0.281-0.162-0.485-0.354-0.606-0.563 c-0.063-0.117-0.102-0.243-0.12-0.393l2.663,1.537c0.089,0.052,0.166,0.038,0.211-0.018c0.083-0.128,0.206-0.41,0.264-0.685 c0.239-0.861,0.171-1.724-0.204-2.499C116.047,109.563,115.614,108.924,114.765,108.434 M94.295,96.608 c-0.44-0.254-0.926-0.3-1.368-0.121l0.026-0.19c0.013-0.074-0.006-0.158-0.05-0.257l-0.179-0.198l-1.271-0.734 c-0.108-0.063-0.211-0.034-0.23,0.08l-1.351,4.93c-0.013,0.073-0.013,0.168,0.051,0.271c0.031,0.084,0.108,0.18,0.178,0.221 l1.539,0.888c0.121,0.07,0.211,0.026,0.243-0.072l0.737-2.801c0.487-0.513,0.96-0.313,1.094-0.235 c0.186,0.107,0.3,0.21,0.466,0.357c0.02,0.019,0.041,0.034,0.061,0.046c0.09,0.052,0.178,0.04,0.22-0.038l0.624-1.176 c0.058-0.099,0.001-0.301-0.107-0.437C94.8,96.943,94.602,96.786,94.295,96.608 M101.319,100.663 c-0.6-0.346-1.118-0.366-1.534-0.305l0.019-0.128l-0.063-0.243l-0.178-0.198l-1.271-0.733 c-0.108-0.063-0.205-0.03-0.23,0.08l-1.351,4.93c-0.013,0.073-0.007,0.172,0.044,0.268c0.051,0.096,0.115,0.184,0.191,0.229 l1.545,0.892c0.109,0.063,0.205,0.023,0.23-0.08l0.892-3.218c0.333-0.087,0.524-0.087,0.767,0.053 c0.102,0.059,0.146,0.107,0.166,0.125c0,0,0.057,0.158-0.066,0.594l-0.782,2.863c-0.02,0.07-0.007,0.172,0.038,0.264 s0.114,0.184,0.198,0.231l1.551,0.896c0.108,0.063,0.205,0.023,0.23-0.08l0.833-3.062c0.226-0.832,0.19-1.572-0.115-2.204 C102.199,101.348,101.83,100.958,101.319,100.663 M120.696,111.851c-0.44-0.254-0.926-0.3-1.368-0.122l0.026-0.19 c0.006-0.077-0.013-0.162-0.063-0.265c-0.044-0.084-0.108-0.158-0.179-0.198l-1.264-0.73c-0.108-0.063-0.205-0.03-0.23,0.08 l-1.344,4.934c-0.02,0.07,0,0.176,0.038,0.264c0.051,0.096,0.121,0.188,0.198,0.232l1.545,0.892l-0.006-0.004 c0.121,0.07,0.211,0.026,0.243-0.072l0.75-2.793c0.488-0.512,0.954-0.316,1.094-0.235c0.179,0.103,0.287,0.202,0.453,0.35 c0.021,0.019,0.043,0.035,0.064,0.047c0.094,0.054,0.182,0.042,0.224-0.036l0.624-1.175c0.052-0.103,0.001-0.301-0.12-0.444 C121.194,112.182,120.997,112.024,120.696,111.851 M82.898,88.279c-1.45-0.836-2.787-0.551-3.11,0.674 c-0.258,0.894,0.103,1.992,0.958,2.918l0.835,0.938c0.484,0.537,0.522,0.632,0.483,0.742 c-0.084,0.334-0.467,0.178-0.767,0.005c-0.428-0.247-0.887-0.776-1.211-1.383L79.92,91.99 c-0.07-0.041-0.134-0.048-0.179-0.022l-1.172,0.558c-0.096,0.04-0.103,0.205-0.027,0.359 c0.528,1.062,1.389,1.985,2.359,2.545l-0.006,0.011c0.798,0.461,1.526,0.61,2.134,0.461c0.563-0.138,0.961-0.54,1.129-1.141 c0.271-0.953-0.058-1.944-0.938-2.908l-0.714-0.787l-0.083-0.092c-0.497-0.537-0.605-0.68-0.573-0.787 c0.091-0.33,0.512-0.123,0.697-0.016c0.402,0.232,0.702,0.544,1.027,1.077c0.044,0.081,0.104,0.143,0.163,0.177 c0.06,0.035,0.121,0.042,0.168,0.015l1.031-0.521c0.096-0.033,0.109-0.187,0.033-0.349 C84.531,89.619,83.772,88.784,82.898,88.279 M111.859,104.581l-1.545-0.892c-0.108-0.063-0.205-0.022-0.243,0.073 l-1.447,5.33c-0.201,0.737-0.17,1.357,0.09,1.911c0.222,0.452,0.586,0.824,1.084,1.111l0.013-0.007 c0.434,0.25,0.741,0.332,0.888,0.351c0.083,0.011,0.141-0.044,0.154-0.139l0.125-1.25c0.013-0.081-0.012-0.176-0.07-0.268 c-0.049-0.079-0.105-0.132-0.161-0.165c-0.017-0.009-0.033-0.017-0.049-0.023l-0.096-0.041l0.02-0.128l1.473-5.366 c0.02-0.077,0-0.176-0.044-0.268S111.93,104.622,111.859,104.581 M96.889,95.629c-0.626-0.361-1.183-0.227-1.338,0.352 c-0.077,0.286-0.034,0.627,0.119,0.943c0.165,0.345,0.445,0.646,0.791,0.846v-0.007c0.62,0.357,1.176,0.223,1.331-0.349 c0.078-0.278,0.034-0.627-0.119-0.95C97.495,96.118,97.227,95.824,96.889,95.629"/>
    </g>
  </g>
  <g>
    <defs>
      <path id="c" d="M139 116.1L138.9 83.5 173 63.9 173.1 96.5z"/>
    </defs>
    <clipPath id="d">
      <use xlink:href="#c" overflow="visible"/>
    </clipPath>
    <g clip-path="url(#d)">
      <path d="M150.276,76.977l-11.346,6.55l0.037,13.044l11.345-6.55L150.276,76.977 M172.98,63.869l-11.352,6.554l0.037,13.044 l-11.352,6.554l0.019,6.515l-5.669,3.273l0.037,13.044l5.67-3.273l-0.019-6.522l11.352-6.554l0.019,6.522l5.676-3.277 l-0.037-13.044l-5.676,3.277l-0.019-6.515l11.352-6.554L172.98,63.869"/>
    </g>
  </g>
</svg>
