<svg 
  xmlns="http://www.w3.org/2000/svg" width="256" height="256" 
  xmlns:xlink="http://www.w3.org/1999/xlink">
  <path fill="none" stroke="#000" stroke-width="2" stroke-miterlimit="10" d="M128 128L128 256"/>
  <g fill="#FFF">
    <path d="M71.5 112.6L71.5 47.4 128 14.8 184.5 47.4 184.5 112.6 128 145.2"/>
    <path d="M128,16l55.5,32v64L128,144l-55.5-32V48L128,16 M128,13.691L70.5,46.844v66.31l57.5,33.154l57.5-33.154 V46.845L128,13.691L128,13.691z"/>
  </g>
  <path fill="#FFF" stroke="#FFF" stroke-width="2" stroke-miterlimit="10" d="M126 80H130V128H126z" stroke-linecap="round" stroke-linejoin="round"/>
  <path fill="#FFF" stroke="#FFF" stroke-width="2" stroke-miterlimit="10" d="M126 80H130V128H126z" stroke-linecap="round" stroke-linejoin="round"/>
  <path fill="#FFF" stroke="#FFF" stroke-width="2" stroke-miterlimit="10" d="M146.8 44H150.8V92H146.8z" transform="rotate(-120 148.776 68.003)" stroke-linecap="round" stroke-linejoin="round"/>
  <path fill="#FFF" stroke="#FFF" stroke-width="2" stroke-miterlimit="10" d="M83.2 66H131.2V70H83.2z" transform="rotate(-150 107.214 68)" stroke-linecap="round" stroke-linejoin="round"/>
  <path fill="#FFF" d="M73.5 111.4L73.5 48.6 128 17.2 182.5 48.6 182.5 111.4 128 142.8"/>
  <path d="M128,18.309l53.5,30.847v61.69L128,141.691l-53.5-30.846V49.155L128,18.309 M128,16L72.5,48v64l55.5,32l55.5-32V48 L128,16L128,16z"/>
  <path fill="none" stroke="#000" stroke-width="2" stroke-miterlimit="10" d="M128 80L128 128M128 80L128 128M128 80L169.6 56M128 80L86.4 56" stroke-linecap="round" stroke-linejoin="round"/>
  <g>
    <defs>
      <path id="a" d="M77.8 104.7L77.9 65.6 122.5 91.3 122.4 130.4z"/>
    </defs>
    <clipPath id="b">
      <use xlink:href="#a" overflow="visible"/>
    </clipPath>
    <g clip-path="url(#b)">
      <path fill="#FFF" d="M102.526,116.201c-0.106,0.145-0.255,0.227-0.43,0.244c0.637,0.56,1.657,1.289,1.845,1.426 c0.017,0.012,0.033,0.023,0.05,0.035l0.014-0.051C103.425,117.434,102.914,116.866,102.526,116.201 M102.181,93.564 c-0.046-0.025-0.095-0.051-0.147-0.074l-0.421-0.243l-0.013,0.008l-0.421-0.243c-0.063-0.037-0.132-0.082-0.202-0.121 c-0.198-0.115-0.393-0.188-0.431,0.102c-0.04,0.365-0.085,0.759,0.278,1.24c0.166,0.228,0.357,0.427,0.529,0.621 c0.47,0.513,0.795,0.9,1.011,1.025c0.284,0.164,0.376-0.132,0.358-1.213C102.723,94.107,102.57,93.79,102.181,93.564 M89.163,83.671l-0.159-0.165c0.051-0.08,0.103-0.169,0.154-0.257c0.122-0.201,0.237-0.399,0.36-0.586 c0.057,0.048,0.121,0.106,0.191,0.185L89.163,83.671 M89.399,81.469c-0.295-0.171-0.507-0.134-0.646,0.049 c-0.167,0.241-0.313,0.485-0.462,0.738c-0.643,1.077-0.643,1.077,0.684,2.416l0.122,0.121 c0.101,0.113,0.197,0.195,0.285,0.246c0.205,0.117,0.37,0.072,0.482-0.104l0.899-1.377 c0.097-0.158,0.18-0.345,0.002-0.631c-0.401-0.593-0.796-1.113-1.307-1.424C89.437,81.491,89.418,81.479,89.399,81.469 M106.471,98.587l0.005-1.592c0.101,0.491,0.24,1.042,0.564,1.562l-0.006,0.002 C106.88,98.553,106.676,98.544,106.471,98.587 M104.097,80.697c-0.779-0.449-1.552-0.764-2.299-0.917 c-1.784-0.354-2.771,0.576-2.572,2.425l0.007,0.032c0.012,0.111,0.012,0.25,0.012,0.404 c-0.001,0.176,0.005,0.371,0.024,0.594c0.085,1.49,0.068,2.973-0.064,4.505l-0.191-0.206 c-0.497-0.529-1.014-1.084-1.518-1.646l-0.019-0.02c-2.072-2.254-4.418-4.813-7.081-6.351 c-0.249-0.144-0.498-0.273-0.747-0.395l-0.058-0.084c-0.637-0.861-1.306-1.666-1.95-2.441 c-0.503-0.607-0.969-1.169-1.421-1.754l-0.025-0.029c-0.306-0.382-0.593-0.651-0.88-0.817 c-0.389-0.225-0.933-0.355-1.318,0.268c-0.122,0.201-0.244,0.403-0.366,0.597c-0.476,0.769-0.964,1.56-1.49,2.24 l-0.006,0.012c-0.109,0.157-0.449,0.615-0.266,1.462c0.164,0.749,0.616,1.348,0.935,1.73 c2.511,3.001,5.291,5.884,8.506,8.835c0.191,0.185,0.376,0.328,0.555,0.432c0.313,0.18,0.563,0.222,0.761,0.188 l0.044,0.194c0.095,0.408,0.342,1.043,0.935,1.724l0.026,0.028c0.172,0.194,0.344,0.403,0.535,0.642 c0.427,0.519,0.905,1.103,1.479,1.588c0.222,0.576,0.579,0.988,0.764,1.205l0.089,0.104 c0.784,0.996,1.6,1.871,2.391,2.717c0.631,0.666,1.224,1.304,1.778,1.976l0.013,0.015c0.058,0.069,0.178,0.347,0.216,0.69 c0.043,0.354-0.027,0.521-0.053,0.543l-0.025,0.006c-0.653,0.353-0.612,1.258-0.581,1.855l0.006,0.129v0.043 c0.012,0.139-0.001,0.271-0.021,0.414c-0.026,0.316-0.079,0.814,0.162,1.483c-0.135,0.267-0.149,0.59-0.111,0.884 l-0.026,0.016c-0.226,0.193-0.386,0.469-0.48,0.799c0.094,0.072,0.2,0.166,0.311,0.293 c0.258,0.035,0.517,0.107,0.774,0.214c0.044-0.063,0.095-0.121,0.152-0.171c0.167-0.139,0.314-0.281,0.245-0.668 c-0.076-0.321,0.021-0.473,0.194-0.586c0.122-0.068,0.16-0.156,0.001-0.418c-0.484-0.75-0.176-1.034-0.238-1.805 c-0.024-0.543-0.08-1.091,0.285-1.283c0.666-0.313,0.429-2.236-0.355-3.16c-1.333-1.605-2.818-2.971-4.138-4.651 c-0.242-0.301-0.529-0.54-0.566-0.966c0-0.169-0.12-0.305-0.242-0.391c-0.823-0.557-1.448-1.504-2.149-2.283 c-0.484-0.559-0.604-1.092-0.36-1.494c0.245-0.417,0.521-0.811,0.732-1.245c0.149-0.294,0.375-0.381,0.656-0.22 c0.132,0.076,0.277,0.209,0.431,0.398c0.688,0.859,1.479,1.521,2.033,2.54c0.07,0.121,0.154,0.25,0.232,0.296 c0.057,0.032,0.11,0.02,0.15-0.074c0.122-0.237,0.468-0.317,0.175-0.877c-0.051-0.108-0.121-0.18-0.204-0.256 c-0.969-1.061-1.938-2.098-2.882-3.142c-0.102-0.11-0.192-0.185-0.277-0.233c-0.211-0.121-0.388-0.091-0.629-0.078 c-0.966,0.053-1.129,1.156-1.668,1.75c-0.166,0.194-0.316,0.295-0.561,0.154c-0.077-0.045-0.164-0.113-0.264-0.213 c-2.877-2.63-5.683-5.479-8.34-8.658c-0.51-0.603-0.624-0.97-0.296-1.428c0.68-0.886,1.278-1.908,1.888-2.878 c0.129-0.215,0.267-0.282,0.453-0.174c0.111,0.064,0.238,0.19,0.391,0.382c1.089,1.408,2.275,2.709,3.352,4.162 c0.145,0.205,0.308,0.421,0.508,0.537c0.029,0.017,0.06,0.032,0.091,0.044c0.247,0.119,0.491,0.249,0.732,0.389 c2.392,1.381,4.546,3.694,6.7,6.041c0.771,0.856,1.542,1.669,2.32,2.509c0.156,0.176,0.287,0.313,0.391,0.375 c0.161,0.092,0.26,0.004,0.3-0.396c0.184-1.73,0.253-3.543,0.137-5.469c-0.038-0.367,0.002-0.689-0.049-1.072 c-0.162-1.555,0.92-1.797,1.911-1.6c0.666,0.141,1.331,0.409,1.998,0.795c0.582,0.336,1.166,0.76,1.756,1.262 c0.747,0.65,1.255,1.533,1.784,2.396c0.223,0.351,0.196,0.701,0.195,1.031c-0.004,1.601,0.029,3.222-0.014,4.798 c-0.002,0.977,0.333,2.104,0.146,2.973l0.05,0.168c0.164,0.158,0.335,0.276,0.508,0.377 c0.211,0.121,0.425,0.215,0.629,0.316c0.293,0.146,0.365-0.061,0.403-0.318c0.04-0.396,0.06-0.832,0.074-1.258 c0.001-0.418,0.174-0.539,0.551-0.32l6.353,3.668c0.728,0.449,1.006,1.279,0.698,1.851 c-0.245,0.49-0.731,0.556-1.179,0.716c-2.145,0.85-4.606,0.684-7.442-0.718c-0.164-0.082-0.302-0.153-0.419-0.222 c-0.576-0.332-0.645-0.571-0.823-1.555c-0.107-0.598-0.366-0.845-0.655-1.012c-0.084-0.049-0.17-0.09-0.256-0.132 c-0.072-0.036-0.145-0.071-0.215-0.112c-0.029-0.018-0.057-0.035-0.085-0.054c-0.018-0.011-0.035-0.021-0.051-0.03 c-0.421-0.244-0.582,0.014-0.596,0.467l-0.007,2.436c-0.001,0.271-0.002,0.652,0.266,0.902 c0.051,0.055,0.104,0.095,0.157,0.125c0.091,0.053,0.185,0.078,0.277,0.104c0.091,0.023,0.184,0.048,0.276,0.102 c0.096,0.056,0.191,0.143,0.285,0.289c0.046-0.355,0.64-0.232,0.896-0.254c0.486-0.021,1.017,0.027,1.529,0.008 c0.13-0.002,0.246,0.025,0.349,0.086c0.185,0.105,0.331,0.316,0.461,0.66c0.336,0.789,0.603,1.598,0.843,2.392 c0.095,0.334,0.12,0.627-0.174,0.597c-0.85-0.072-1.574,0.209-2.519-0.168l-0.121-0.07 c-0.041,0.866-0.788,0.311-1.216,0.408c-0.391,0.083-0.508,1.008-0.126,1.573c0.325,0.467,0.362,0.826,0.387,1.244 c0.042,0.76-0.058,2.192-0.103,2.228c-0.768,0.387,0.079,1.367,0.359,2.088c0.037,0.099,0.075,0.234,0.111,0.395 l0.994,0.574c-0.08-0.443-0.186-0.829-0.267-1.043c-0.121-0.313-0.267-0.58-0.394-0.822l-0.039-0.074 c0.205-0.176,0.245-0.513,0.285-1.335c0.021-0.274,0.054-0.989,0.017-1.532c-0.018-0.406-0.061-1.146-0.608-2.033v-0.016 l0.153,0.029c0.269,0.053,0.85,0.168,1.184-0.271c0.575,0.141,1.067,0.109,1.515,0.082 c0.269-0.015,0.518-0.031,0.755-0.014c0.62,0.064,1.076-0.443,0.708-1.729l-0.013-0.031 c-0.196-0.656-0.444-1.424-0.761-2.225c2.057,0.606,3.963,0.563,5.698-0.119c0.07-0.025,0.141-0.043,0.211-0.068 c0.416-0.129,0.929-0.295,1.23-0.893c0.296-0.558,0.279-1.33-0.032-2.105c-0.305-0.741-0.859-1.407-1.511-1.813 l-0.032-0.02l-6.353-3.667c-0.645-0.372-1.144-0.302-1.375,0.153c-0.013-0.141-0.019-0.275-0.018-0.4 c0.022-1.066,0.019-2.164,0.015-3.217c-0.004-0.532-0.003-1.067-0.001-1.596v-0.08c0.001-0.396,0.009-1.127-0.506-1.953 l-0.127-0.207c-0.534-0.881-1.146-1.873-2.071-2.688l-0.019-0.019C105.4,81.537,104.736,81.066,104.097,80.697"/>
      <path d="M101.179,93.012l0.421,0.243l0.013-0.008l0.421,0.243c0.053,0.023,0.102,0.049,0.147,0.074 c0.389,0.226,0.542,0.543,0.54,1.102c0.019,1.081-0.074,1.377-0.358,1.213c-0.216-0.125-0.541-0.514-1.011-1.025 c-0.172-0.194-0.363-0.395-0.529-0.621c-0.363-0.481-0.317-0.875-0.278-1.24c0.039-0.288,0.233-0.217,0.431-0.102 C101.046,92.93,101.115,92.975,101.179,93.012 M89.381,85.039c-0.088-0.051-0.184-0.133-0.285-0.246l-0.122-0.121 c-1.326-1.339-1.326-1.339-0.684-2.416c0.148-0.253,0.296-0.497,0.462-0.738c0.139-0.183,0.351-0.22,0.646-0.049 c0.019,0.012,0.039,0.022,0.058,0.035c0.511,0.311,0.906,0.831,1.307,1.424c0.178,0.286,0.095,0.473-0.002,0.631 l-0.899,1.377C89.75,85.111,89.586,85.156,89.381,85.039 M104.093,81.809c-0.667-0.387-1.332-0.656-1.998-0.797 c-0.991-0.197-2.072,0.045-1.911,1.602c0.051,0.382,0.011,0.703,0.049,1.07c0.116,1.926,0.047,3.738-0.137,5.471 c-0.04,0.398-0.14,0.486-0.3,0.395c-0.104-0.061-0.234-0.197-0.391-0.375c-0.778-0.839-1.549-1.65-2.32-2.508 c-2.154-2.346-4.309-4.66-6.7-6.041c-0.241-0.14-0.486-0.27-0.732-0.389c-0.031-0.012-0.062-0.027-0.091-0.044 c-0.2-0.116-0.364-0.332-0.508-0.537c-1.077-1.453-2.263-2.754-3.352-4.162c-0.153-0.192-0.28-0.318-0.391-0.382 c-0.186-0.107-0.324-0.041-0.453,0.174c-0.61,0.97-1.208,1.992-1.888,2.878c-0.327,0.458-0.213,0.825,0.296,1.428 c2.658,3.181,5.463,6.028,8.34,8.658c0.1,0.099,0.187,0.168,0.264,0.213c0.245,0.142,0.395,0.04,0.561-0.155 c0.539-0.593,0.702-1.695,1.668-1.748c0.242-0.014,0.418-0.043,0.629,0.078c0.085,0.049,0.175,0.122,0.277,0.232 c0.944,1.044,1.913,2.081,2.882,3.141c0.083,0.077,0.153,0.146,0.204,0.258c0.292,0.559-0.053,0.639-0.175,0.877 c-0.041,0.094-0.094,0.105-0.15,0.072c-0.078-0.045-0.163-0.174-0.232-0.295c-0.554-1.02-1.345-1.681-2.033-2.54 c-0.154-0.19-0.299-0.321-0.431-0.397c-0.281-0.162-0.506-0.075-0.656,0.219c-0.212,0.436-0.488,0.828-0.732,1.244 c-0.244,0.404-0.124,0.937,0.36,1.494c0.701,0.779,1.326,1.729,2.149,2.285c0.122,0.084,0.242,0.221,0.242,0.39 c0.037,0.426,0.324,0.665,0.566,0.966c1.319,1.682,2.805,3.046,4.138,4.652c0.784,0.922,1.021,2.846,0.355,3.158 c-0.365,0.193-0.309,0.74-0.285,1.283c0.062,0.771-0.246,1.057,0.238,1.807c0.159,0.261,0.121,0.349-0.001,0.418 c-0.173,0.113-0.27,0.264-0.194,0.586c0.069,0.386-0.078,0.527-0.245,0.666c-0.058,0.051-0.108,0.107-0.152,0.172 c0.157,0.064,0.314,0.145,0.471,0.234c1.028,0.592,1.595,1.44,1.887,2.051c0.058,0.121,0.108,0.246,0.159,0.371 c0.762-0.375,1.676-0.267,2.493,0.205c0.383,0.221,0.734,0.498,1.046,0.824c0.128,0.022,0.262,0.078,0.402,0.159 l0.125,0.071c-0.036-0.159-0.074-0.297-0.111-0.395c-0.28-0.721-1.127-1.701-0.359-2.089 c0.045-0.032,0.145-1.467,0.103-2.228c-0.025-0.418-0.062-0.776-0.387-1.243c-0.382-0.565-0.265-1.49,0.126-1.573 c0.429-0.1,1.175,0.458,1.216-0.408l0.121,0.07c0.945,0.377,1.669,0.096,2.519,0.168c0.294,0.029,0.27-0.264,0.174-0.598 c-0.241-0.793-0.507-1.602-0.843-2.391c-0.13-0.344-0.277-0.555-0.461-0.66c-0.103-0.061-0.218-0.088-0.349-0.086 c-0.512,0.021-1.042-0.029-1.529-0.009c-0.256,0.021-0.85-0.103-0.896,0.255c-0.094-0.146-0.189-0.234-0.285-0.289 c-0.092-0.054-0.185-0.078-0.276-0.102c-0.093-0.025-0.186-0.053-0.277-0.104c-0.053-0.031-0.105-0.07-0.157-0.125 c-0.268-0.25-0.267-0.631-0.266-0.902l0.007-2.436c0.014-0.453,0.174-0.711,0.596-0.468 c0.017,0.011,0.034,0.021,0.051,0.031c0.028,0.019,0.057,0.036,0.085,0.053c0.07,0.041,0.143,0.077,0.215,0.113 c0.086,0.042,0.172,0.083,0.256,0.132c0.289,0.167,0.547,0.414,0.655,1.012c0.178,0.982,0.248,1.223,0.823,1.555 c0.117,0.068,0.255,0.14,0.419,0.222c2.835,1.401,5.297,1.565,7.442,0.718c0.448-0.16,0.934-0.227,1.179-0.716 c0.308-0.571,0.029-1.401-0.698-1.851l-6.353-3.668c-0.376-0.219-0.55-0.098-0.551,0.32 c-0.014,0.426-0.034,0.862-0.074,1.258c-0.039,0.258-0.11,0.467-0.403,0.318c-0.204-0.102-0.417-0.195-0.629-0.316 c-0.173-0.101-0.344-0.22-0.508-0.377l-0.05-0.168c0.188-0.869-0.148-1.996-0.146-2.973 c0.043-1.577,0.009-3.197,0.014-4.798c0.001-0.33,0.028-0.683-0.195-1.031c-0.529-0.862-1.038-1.745-1.784-2.396 C105.259,82.566,104.675,82.145,104.093,81.809"/>
      <path fill="#FFF" d="M105.879,113.316v0.008c-0.293-0.17-0.709-0.071-0.942,0.757 c-0.174,0.626-0.085,0.942-0.028,1.078c0.032,0.041,0.083,0.157,0.287,0.276c0.204,0.117,0.39,0.149,0.633,0.012 l0.472-1.747C106.192,113.534,106.057,113.421,105.879,113.316 M87.746,102.841c-0.204-0.118-0.422-0.141-0.69-0.046 l-0.479,1.744l-0.006,0.004c0.102,0.146,0.242,0.279,0.396,0.369c0.421,0.242,0.787-0.055,0.994-0.824 c0.174-0.597,0.098-0.883,0.047-0.992C87.989,103.055,87.944,102.955,87.746,102.841 M114.479,118.193 c-0.274-0.158-0.524-0.147-0.716,0.021l1.06,0.611c0.013-0.133,0-0.258-0.044-0.35 C114.722,118.35,114.581,118.253,114.479,118.193 M93.036,109.422l0.472-1.785l0.019-0.011L93.036,109.422 M94.151,110.947c-0.077-0.045-0.153-0.141-0.191-0.221c-0.051-0.104-0.063-0.199-0.044-0.275l1.351-4.93 c0.026-0.11,0.122-0.144,0.23-0.08l1.551,0.896l0.179,0.222c0.051,0.096,0.057,0.188,0.05,0.264l-1.351,4.931 c-0.032,0.099-0.122,0.144-0.243,0.073l0.013,0.015L94.151,110.947 M87.215,100.998c0.377-0.032,0.85,0.027,1.329,0.305 c0.563,0.324,1.008,0.811,1.288,1.404c0.388,0.805,0.456,1.74,0.197,2.688c-0.504,1.891-1.912,2.209-3.048,1.553 c-0.319-0.184-0.606-0.459-0.861-0.819l-0.072,0.354v0.022l-0.388,1.414c-0.032,0.101-0.122,0.136-0.243,0.065 l0.006-0.012l-1.539-0.888c-0.077-0.045-0.153-0.118-0.197-0.218c-0.051-0.096-0.064-0.198-0.044-0.268l1.842-6.72 c0.02-0.114,0.122-0.144,0.23-0.08l1.271,0.733l0.166,0.184l0.063,0.242V100.998 M104.423,117.018 c-0.587-0.338-1.06-0.86-1.358-1.48c-0.4-0.827-0.462-1.781-0.19-2.756c0.484-1.814,1.899-2.107,2.984-1.48 c0.485,0.28,0.849,0.645,1.128,1.159l0.103-0.169c0.044-0.055,0.122-0.068,0.217-0.016l1.207,0.697 c0.077,0.045,0.153,0.133,0.191,0.229c0.051,0.096,0.063,0.184,0.044,0.261l-1.835,6.729 c-0.026,0.103-0.122,0.136-0.23,0.072v-0.015l-1.564-0.903c-0.07-0.041-0.146-0.113-0.178-0.205 c-0.039-0.088-0.077-0.207-0.051-0.271l0.401-1.459v-0.021l0.039-0.096C105.03,117.271,104.711,117.184,104.423,117.018 M113.514,122.273l0.007-0.004c-0.785-0.453-1.417-1.133-1.792-1.924c-0.406-0.845-0.5-1.75-0.261-2.604 c0.491-1.813,2.064-2.012,3.297-1.301c0.843,0.486,1.283,1.129,1.499,1.586c0.375,0.773,0.443,1.637,0.204,2.498 c-0.064,0.271-0.181,0.557-0.264,0.685c-0.045,0.063-0.122,0.069-0.211,0.019l-2.663-1.537 c0.02,0.15,0.057,0.275,0.121,0.4c0.121,0.209,0.325,0.393,0.606,0.555c0.313,0.182,0.639,0.268,1.028,0.271 c0.03-0.002,0.067,0.009,0.105,0.029c0.034,0.021,0.069,0.05,0.1,0.089c0.058,0.056,0.121,0.157,0.133,0.245l0.265,1.234 c0.025,0.131-0.021,0.237-0.109,0.252C114.946,122.836,114.179,122.656,113.514,122.273 M92.928,104.495 c0.442-0.179,0.928-0.134,1.369,0.121c0.3,0.173,0.504,0.327,0.683,0.526c0.108,0.137,0.165,0.338,0.101,0.44 l-0.617,1.172c-0.042,0.077-0.13,0.089-0.22,0.037c-0.021-0.013-0.041-0.026-0.062-0.046 c-0.172-0.15-0.287-0.246-0.466-0.35c-0.134-0.078-0.606-0.285-1.094,0.229l-0.737,2.8 c-0.032,0.101-0.122,0.144-0.243,0.073l-1.539-0.889c-0.077-0.045-0.147-0.137-0.185-0.217 c-0.057-0.106-0.057-0.195-0.044-0.275l1.344-4.934c0.026-0.111,0.122-0.145,0.23-0.08l1.277,0.736l0.179,0.205 c0.044,0.094,0.057,0.173,0.05,0.25L92.928,104.495 M99.785,108.357c0.41-0.063,0.934-0.033,1.534,0.313 c0.504,0.291,0.881,0.679,1.116,1.175c0.305,0.623,0.341,1.364,0.115,2.204l-0.84,3.05 c-0.026,0.103-0.122,0.144-0.229,0.08l-1.545-0.893c-0.083-0.049-0.153-0.141-0.197-0.225 c-0.044-0.1-0.057-0.194-0.038-0.271l0.782-2.861c0.123-0.438,0.06-0.592,0.06-0.592c-0.013-0.021-0.058-0.068-0.16-0.128 c-0.243-0.142-0.435-0.142-0.773-0.058l-0.886,3.222c-0.025,0.103-0.122,0.144-0.23,0.08l-1.545-0.894 c-0.077-0.043-0.147-0.136-0.191-0.22c-0.051-0.104-0.063-0.198-0.044-0.276l1.351-4.928 c0.026-0.111,0.122-0.145,0.229-0.082l1.271,0.733l0.179,0.198l0.063,0.242L99.785,108.357 M119.329,119.736 c0.442-0.178,0.927-0.133,1.368,0.121c0.3,0.174,0.498,0.326,0.683,0.526c0.121,0.146,0.172,0.343,0.12,0.452l-0.63,1.165 c-0.037,0.08-0.124,0.093-0.217,0.039c-0.021-0.013-0.043-0.028-0.064-0.048c-0.166-0.146-0.274-0.238-0.453-0.342 c-0.141-0.082-0.606-0.284-1.094,0.228l-0.756,2.79c-0.026,0.102-0.122,0.143-0.243,0.072l0.006,0.004l-1.539-0.889 c-0.077-0.045-0.146-0.137-0.197-0.225c-0.039-0.096-0.057-0.195-0.038-0.271l1.344-4.935 c0.026-0.108,0.122-0.144,0.23-0.079l1.258,0.725c0.077,0.045,0.141,0.119,0.185,0.211s0.07,0.18,0.057,0.254 L119.329,119.736 M81.291,101.555c0.306,0.176,0.683,0.327,0.773,0.006c0.032-0.121,0-0.213-0.484-0.75l-0.835-0.932 c-0.861-0.938-1.216-2.023-0.964-2.93c0.33-1.213,1.667-1.508,3.116-0.67c0.875,0.505,1.634,1.348,2.072,2.291 c0.069,0.158,0.056,0.312-0.033,0.354l-1.031,0.517c-0.048,0.029-0.108,0.023-0.168-0.01 c-0.06-0.035-0.119-0.1-0.164-0.184c-0.325-0.532-0.624-0.846-1.026-1.078c-0.185-0.105-0.606-0.307-0.697,0.018 c-0.032,0.105,0.076,0.25,0.574,0.787l0.083,0.09l0.714,0.787c0.879,0.965,1.209,1.955,0.938,2.916 c-0.168,0.594-0.565,0.996-1.135,1.131c-0.601,0.16-1.33,0.004-2.128-0.457l0.007-0.004 c-0.971-0.561-1.831-1.49-2.359-2.545c-0.077-0.162-0.076-0.322,0.026-0.367l1.172-0.557 c0.045-0.027,0.109-0.02,0.179,0.02l0.166,0.186C80.411,100.779,80.869,101.311,81.291,101.555 M109.799,120.121 c-0.504-0.291-0.868-0.67-1.09-1.121c-0.254-0.551-0.285-1.171-0.084-1.908l1.448-5.328 c0.039-0.097,0.135-0.129,0.243-0.066l1.545,0.894c0.07,0.04,0.14,0.124,0.191,0.22c0.044,0.092,0.057,0.195,0.044,0.27 l-1.473,5.373l-0.02,0.128l0.089,0.03c0.018,0.006,0.035,0.015,0.053,0.025c0.059,0.032,0.115,0.086,0.164,0.164 c0.058,0.094,0.083,0.188,0.07,0.275l-0.125,1.251c-0.013,0.088-0.071,0.144-0.16,0.128 c-0.141-0.008-0.447-0.089-0.881-0.34L109.799,120.121 M96.461,105.771c-0.351-0.203-0.625-0.5-0.79-0.847 c-0.153-0.315-0.197-0.657-0.119-0.937c0.155-0.578,0.706-0.725,1.338-0.359c0.338,0.195,0.606,0.49,0.784,0.836 c0.152,0.323,0.19,0.668,0.119,0.95c-0.162,0.575-0.712,0.705-1.331,0.349L96.461,105.771 M96.892,102.516 c-1.073-0.619-2.007-0.352-2.272,0.643c-0.045,0.156-0.071,0.318-0.071,0.494c-0.083-0.055-0.16-0.1-0.249-0.149 c-0.351-0.203-0.715-0.325-1.073-0.356c-0.191-0.213-0.37-0.338-0.498-0.41l-1.277-0.737 c-0.447-0.259-0.837-0.212-1.049,0.092c-0.464-0.804-1.109-1.47-1.856-1.901c-0.364-0.209-0.734-0.344-1.111-0.405 c-0.14-0.147-0.293-0.267-0.447-0.354l-1.072-0.619c-0.038-0.14-0.089-0.279-0.153-0.42l-0.013-0.021 c-0.616-1.341-1.662-2.511-2.849-3.195c-1.903-1.099-3.605-0.7-4.051,0.946c-0.226,0.788-0.12,1.723,0.267,2.646 l-1.197,0.563c-0.48,0.215-0.54,1.019-0.133,1.827c0.693,1.385,1.771,2.58,2.983,3.316l0.121,0.077 c0.696,0.401,1.367,0.628,1.975,0.654l-0.162,0.583c-0.097,0.37-0.016,0.857,0.22,1.339 c0.235,0.468,0.58,0.856,0.957,1.075l1.379,0.796l0.153,0.103c0.542,0.313,1.016,0.184,1.171-0.33l0.226-0.816 l0.166,0.104c0.657,0.379,1.405,0.547,2.09,0.385l0.102,0.228c0.223,0.451,0.567,0.843,0.931,1.052l1.539,0.889 c0.543,0.313,1.017,0.183,1.171-0.332l0.007-0.024l0.148-0.562c-0.078,0.367,0.011,0.838,0.227,1.277 c0.229,0.471,0.586,0.875,0.956,1.09l1.545,0.892c0.096,0.056,0.185,0.092,0.268,0.11c0.128,0.045,0.25,0.057,0.352,0.041 c0.191,0.242,0.408,0.441,0.631,0.57l1.545,0.893c0.262,0.15,0.518,0.203,0.716,0.142c0.21,0.298,0.465,0.541,0.727,0.69 l1.545,0.894c0.223,0.129,0.436,0.179,0.619,0.159c0.175-0.02,0.324-0.102,0.43-0.245 c0.388,0.665,0.898,1.231,1.479,1.655l-0.014,0.05l-0.032,0.116c-0.064,0.234-0.091,0.615,0.15,1.211 c0.203,0.513,0.592,0.988,1.007,1.228l1.411,0.813l0.153,0.104c0.542,0.313,1.036,0.156,1.171-0.368l0.355-1.301 c0.318,0.499,0.822,1.077,1.588,1.52l0.173,0.086c0.53,0.283,0.894,0.361,1.08,0.381c0.198,0.025,0.364-0.018,0.499-0.124 c0.497,0.698,1.128,1.299,1.843,1.733l0.121,0.076c0.684,0.396,1.431,0.62,2.115,0.641 c0.235,0.416,0.554,0.755,0.88,0.943l1.532,0.885l0.051,0.029c0.53,0.282,0.972,0.141,1.127-0.357l0.711-2.631 c0.122-0.1,0.211-0.106,0.243-0.103c0.025,0.015,0.063,0.052,0.146,0.121l0.019,0.019 c0.102,0.088,0.205,0.162,0.313,0.225c0.473,0.273,0.901,0.205,1.101-0.174l0.624-1.168l0.026-0.043 c0.238-0.539-0.021-1.476-0.583-2.123l-0.038-0.043c-0.319-0.354-0.644-0.606-1.079-0.857 c-0.357-0.207-0.722-0.329-1.073-0.355c-0.159-0.172-0.332-0.315-0.517-0.424l-1.258-0.726 c-0.453-0.263-0.85-0.212-1.055,0.11c-0.369-0.617-1-1.43-2.028-2.023c-0.645-0.372-1.341-0.563-1.988-0.516l0.252-0.92 c0.084-0.35,0.015-0.808-0.188-1.264l-0.07-0.143c-0.235-0.444-0.567-0.813-0.912-1.012l-1.545-0.893 c-0.517-0.299-0.984-0.188-1.158,0.286l-0.026,0.065l-0.31,1.15c-0.096-0.084-0.198-0.158-0.306-0.221l-0.088-0.051 l-0.994-0.574l-0.125-0.071c-0.14-0.081-0.274-0.137-0.402-0.159c-0.312-0.326-0.663-0.604-1.046-0.824 c-0.817-0.471-1.731-0.58-2.493-0.205c-0.051-0.125-0.102-0.25-0.159-0.371c-0.292-0.609-0.859-1.459-1.887-2.051 c-0.157-0.092-0.314-0.17-0.471-0.234c-0.258-0.105-0.516-0.18-0.774-0.213c-0.111-0.127-0.216-0.223-0.311-0.295 c-0.074-0.057-0.141-0.1-0.2-0.133l-0.83-0.479c0.136-0.562,0.036-1.267-0.282-1.949l-0.044-0.092 C98.041,103.457,97.505,102.868,96.892,102.516"/>
      <path d="M97.048,106.337l-1.551-0.896c-0.108-0.063-0.205-0.03-0.23,0.08l-1.351,4.93 c-0.02,0.076-0.007,0.173,0.044,0.275c0.038,0.08,0.115,0.176,0.191,0.221l1.545,0.893l-0.013-0.015 c0.121,0.069,0.211,0.024,0.243-0.073l1.351-4.93c0.007-0.077,0-0.17-0.05-0.266L97.048,106.337 M86.967,104.912 c-0.154-0.09-0.294-0.223-0.396-0.369l0.006-0.004l0.479-1.744c0.269-0.095,0.486-0.072,0.69,0.046 c0.198,0.114,0.242,0.214,0.262,0.255c0.051,0.109,0.126,0.396-0.047,0.992C87.754,104.857,87.388,105.154,86.967,104.912 M88.544,101.303c-0.479-0.275-0.952-0.337-1.329-0.305v-0.037l-0.063-0.242l-0.166-0.184l-1.271-0.732 c-0.108-0.064-0.211-0.035-0.23,0.079l-1.842,6.72c-0.02,0.068-0.007,0.172,0.044,0.268 c0.044,0.1,0.121,0.173,0.197,0.218l1.539,0.888l-0.006,0.012c0.122,0.07,0.211,0.033,0.243-0.065l0.388-1.414v-0.022 l0.072-0.354c0.254,0.36,0.542,0.636,0.861,0.82c1.137,0.655,2.544,0.337,3.048-1.554 c0.259-0.945,0.191-1.883-0.197-2.688C89.552,102.111,89.106,101.627,88.544,101.303 M105.195,115.436 c-0.205-0.117-0.255-0.234-0.287-0.275c-0.057-0.137-0.146-0.452,0.028-1.078c0.233-0.828,0.649-0.926,0.942-0.757v-0.007 c0.179,0.104,0.313,0.217,0.421,0.383l-0.472,1.748C105.585,115.586,105.399,115.555,105.195,115.436 M105.859,111.3 c-1.085-0.627-2.5-0.334-2.984,1.479c-0.271,0.976-0.21,1.93,0.19,2.757c0.298,0.62,0.771,1.144,1.358,1.481 c0.288,0.166,0.607,0.254,0.907,0.273l-0.039,0.096v0.021l-0.401,1.459c-0.026,0.064,0.012,0.184,0.051,0.271 c0.032,0.092,0.108,0.164,0.178,0.205l1.564,0.903v0.015c0.108,0.063,0.204,0.029,0.23-0.072l1.835-6.729 c0.02-0.077,0.007-0.165-0.044-0.261c-0.038-0.096-0.115-0.184-0.191-0.229l-1.207-0.697 c-0.096-0.055-0.173-0.039-0.217,0.016l-0.103,0.169C106.708,111.943,106.345,111.58,105.859,111.3 M113.763,118.215 c0.192-0.169,0.442-0.18,0.716-0.021c0.102,0.06,0.243,0.156,0.3,0.283c0.044,0.092,0.057,0.217,0.044,0.35 L113.763,118.215 M114.765,116.441c-1.232-0.711-2.806-0.512-3.297,1.301c-0.239,0.854-0.146,1.76,0.261,2.604 c0.375,0.791,1.007,1.471,1.792,1.924l-0.007,0.004c0.664,0.383,1.431,0.563,2.064,0.494 c0.09-0.015,0.135-0.121,0.109-0.252l-0.265-1.234c-0.012-0.088-0.076-0.189-0.133-0.245 c-0.03-0.039-0.065-0.068-0.1-0.089c-0.038-0.02-0.075-0.031-0.105-0.029c-0.39-0.005-0.716-0.091-1.028-0.271 c-0.281-0.162-0.485-0.346-0.606-0.555c-0.064-0.125-0.102-0.25-0.121-0.4l2.663,1.537 c0.089,0.053,0.166,0.045,0.211-0.019c0.083-0.128,0.199-0.413,0.264-0.685c0.239-0.861,0.171-1.725-0.204-2.498 C116.048,117.57,115.608,116.93,114.765,116.441 M94.297,104.616c-0.441-0.255-0.927-0.3-1.369-0.121l0.026-0.198 c0.007-0.076-0.006-0.156-0.05-0.25l-0.179-0.205l-1.277-0.736c-0.108-0.063-0.205-0.03-0.23,0.08l-1.344,4.934 c-0.013,0.081-0.013,0.169,0.044,0.275c0.038,0.08,0.108,0.172,0.185,0.217l1.539,0.889 c0.122,0.068,0.211,0.025,0.243-0.072l0.737-2.801c0.487-0.514,0.96-0.307,1.094-0.229 c0.179,0.104,0.294,0.199,0.466,0.35c0.021,0.02,0.041,0.033,0.062,0.046c0.09,0.052,0.178,0.04,0.22-0.037l0.617-1.172 c0.064-0.104,0.007-0.306-0.101-0.44C94.801,104.943,94.596,104.789,94.297,104.616 M101.32,108.671 c-0.6-0.347-1.125-0.377-1.534-0.313l0.02-0.127l-0.063-0.242l-0.179-0.199l-1.271-0.732 c-0.108-0.063-0.205-0.029-0.23,0.08l-1.351,4.93c-0.02,0.076-0.007,0.172,0.044,0.275 c0.044,0.084,0.115,0.176,0.191,0.221l1.545,0.893c0.108,0.063,0.205,0.021,0.23-0.08l0.886-3.223 c0.339-0.084,0.531-0.082,0.773,0.059c0.102,0.059,0.146,0.105,0.16,0.128c0,0,0.063,0.154-0.06,0.591l-0.782,2.862 c-0.019,0.077-0.006,0.173,0.038,0.271c0.044,0.086,0.115,0.178,0.197,0.226l1.545,0.892 c0.108,0.063,0.205,0.022,0.23-0.078l0.84-3.051c0.226-0.84,0.19-1.58-0.115-2.205 C102.2,109.35,101.824,108.962,101.32,108.671 M120.697,119.857c-0.441-0.254-0.926-0.299-1.368-0.121l0.02-0.2 c0.013-0.074-0.012-0.162-0.057-0.255c-0.045-0.092-0.108-0.164-0.185-0.209l-1.258-0.727 c-0.108-0.063-0.204-0.029-0.23,0.08l-1.344,4.934c-0.019,0.078,0,0.178,0.038,0.272c0.051,0.089,0.121,0.181,0.197,0.224 l1.539,0.89l-0.006-0.004c0.121,0.069,0.217,0.028,0.243-0.072l0.756-2.79c0.488-0.512,0.954-0.309,1.094-0.229 c0.179,0.104,0.287,0.195,0.453,0.343c0.021,0.021,0.043,0.034,0.064,0.048c0.093,0.055,0.18,0.041,0.217-0.039 l0.63-1.165c0.052-0.11,0.001-0.308-0.12-0.452C121.195,120.184,120.997,120.031,120.697,119.857 M82.898,96.279 c-1.449-0.838-2.787-0.543-3.116,0.67c-0.252,0.904,0.103,1.992,0.964,2.93l0.835,0.932 c0.484,0.537,0.516,0.629,0.484,0.75c-0.09,0.321-0.467,0.17-0.773-0.006c-0.422-0.244-0.88-0.773-1.205-1.38 l-0.166-0.185c-0.07-0.04-0.134-0.049-0.179-0.021l-1.172,0.559c-0.102,0.043-0.103,0.205-0.026,0.365 c0.528,1.055,1.388,1.985,2.359,2.545l-0.007,0.004c0.798,0.461,1.527,0.617,2.128,0.459 c0.57-0.135,0.967-0.537,1.135-1.131c0.271-0.961-0.059-1.953-0.938-2.916l-0.714-0.787l-0.083-0.092 c-0.498-0.537-0.605-0.681-0.574-0.787c0.091-0.322,0.512-0.123,0.697-0.017c0.402,0.231,0.702,0.546,1.026,1.078 c0.045,0.084,0.104,0.147,0.164,0.183c0.06,0.034,0.121,0.041,0.168,0.01l1.031-0.516 c0.089-0.044,0.103-0.197,0.033-0.355C84.532,97.627,83.773,96.784,82.898,96.279 M111.861,112.59l-1.545-0.893 c-0.108-0.063-0.205-0.03-0.243,0.064l-1.448,5.329c-0.2,0.737-0.17,1.356,0.084,1.908c0.222,0.451,0.586,0.83,1.09,1.121 l0.013-0.007c0.434,0.25,0.741,0.332,0.881,0.34c0.089,0.016,0.147-0.04,0.16-0.128l0.125-1.251 c0.013-0.088-0.012-0.184-0.07-0.275c-0.049-0.078-0.105-0.132-0.164-0.165c-0.018-0.011-0.035-0.021-0.053-0.024 l-0.089-0.03l0.02-0.128l1.473-5.373c0.013-0.073,0-0.178-0.044-0.27C112.001,112.714,111.93,112.63,111.861,112.59 M96.889,103.629c-0.632-0.363-1.183-0.219-1.338,0.359c-0.078,0.279-0.034,0.621,0.119,0.937 c0.165,0.347,0.439,0.644,0.79,0.847v-0.008c0.619,0.356,1.169,0.228,1.331-0.349c0.071-0.282,0.034-0.627-0.119-0.95 C97.495,104.119,97.228,103.824,96.889,103.629"/>
    </g>
  </g>
  <g>
    <defs>
      <path id="c" d="M139 124.1L138.9 91.5 173 71.9 173.1 104.5z"/>
    </defs>
    <clipPath id="d">
      <use xlink:href="#c" overflow="visible"/>
    </clipPath>
    <g clip-path="url(#d)">
      <path d="M150.277,84.975l-11.352,6.553l0.037,13.045l11.352-6.555L150.277,84.975 M172.98,71.865l-11.353,6.554 l0.037,13.044l-11.352,6.555l0.018,6.521l-5.676,3.275l0.037,13.037l5.676-3.276l-0.019-6.515l11.352-6.555l0.02,6.516 l5.676-3.276l-0.037-13.037l-5.676,3.276l-0.02-6.521l11.352-6.555L172.98,71.865"/>
    </g>
  </g>
  <g>
    <defs>
      <path id="e" d="M94.1 48L127.8 28.4 161.9 48 128.2 67.6z"/>
    </defs>
    <clipPath id="f">
      <use xlink:href="#e" overflow="visible"/>
    </clipPath>
    <g clip-path="url(#f)">
      <path fill="#FFF" d="M129.608,54.333c-0.004-0.002-0.008-0.004-0.012-0.006c-0.153-0.088-0.338-0.167-0.542-0.225 l-0.809-0.232l-0.846,0.202c-0.248,0.056-0.47,0.141-0.667,0.254c-0.78,0.454-0.776,1.198,0.016,1.656 c0.792,0.457,2.077,0.457,2.863-0.001C130.383,55.527,130.395,54.788,129.608,54.333 M141.604,47.349 c-0.556-0.321-1.358-0.424-2.096-0.277l-0.863,0.17l-0.342,0.486c-0.31,0.439-0.135,0.943,0.446,1.279 c0.785,0.453,2.077,0.457,2.863,0c0.381-0.221,0.589-0.52,0.588-0.829C142.199,47.861,141.987,47.57,141.604,47.349 M129.557,40.371c-0.543-0.313-1.358-0.424-2.096-0.276l-0.89,0.169l-0.347,0.483c-0.316,0.442-0.135,0.943,0.446,1.279 c0.191,0.111,0.567,0.196,0.81,0.254l0.49,0.077l-0.018-1.994l2.146,1.327l-0.02-0.107 C130.337,41.152,130.105,40.688,129.557,40.371"/>
      <path fill="#FFF" d="M126.749,55.982c-0.792-0.458-0.796-1.202-0.016-1.656c0.197-0.114,0.419-0.199,0.667-0.254 l0.846-0.202l0.809,0.232c0.204,0.059,0.389,0.137,0.542,0.225c0.004,0.002,0.008,0.004,0.012,0.006 c0.786,0.454,0.774,1.193,0.004,1.648C128.826,56.439,127.541,56.439,126.749,55.982 M138.75,49.008 c-0.581-0.336-0.756-0.84-0.446-1.279l0.342-0.486l0.863-0.17c0.737-0.147,1.54-0.044,2.096,0.277 c0.383,0.221,0.595,0.512,0.597,0.829c0.001,0.31-0.207,0.608-0.588,0.829C140.827,49.465,139.535,49.461,138.75,49.008 M126.67,42.026c-0.581-0.335-0.762-0.836-0.446-1.279l0.347-0.483l0.89-0.169c0.737-0.148,1.553-0.037,2.096,0.276 c0.549,0.317,0.78,0.781,0.522,1.212l0.02,0.107l-2.146-1.327l0.018,1.994l-0.49-0.077 C127.238,42.222,126.862,42.137,126.67,42.026 M157.529,45.521l-25.347-14.634c-1.162-0.671-2.704-1.04-4.346-1.04 s-3.18,0.369-4.334,1.04L98.44,45.451c-1.155,0.671-1.792,1.566-1.781,2.514c0.005,0.951,0.653,1.847,1.809,2.514 l25.348,14.634c1.162,0.671,2.704,1.04,4.339,1.043c1.643,0,3.187-0.373,4.341-1.043l25.062-14.564 C159.943,49.162,159.93,46.906,157.529,45.521l-1.699,0.988c1.461,0.844,1.469,2.208,0.017,3.052l-25.062,14.564 c-1.453,0.844-3.808,0.844-5.27,0l-25.334-14.634c-1.456-0.84-1.457-2.208-0.011-3.048l17.292-10.034l6.621,3.801 c-0.663,0.932-0.255,2.049,1.053,2.805c0.174,0.1,0.276,0.189,0.414,0.269c0.207,0.119,0.493,0.216,1.219,0.291l0.051,9.201 c-1.201,0.129-1.175,0.313-1.6,0.561c-1.726,1.003-1.869,2.632-0.132,3.635c1.736,1.002,4.581,0.999,6.313,0 c1.719-1.007,1.792-2.632,0.056-3.635c-0.279-0.155-0.743-0.288-0.935-0.398c-0.055-0.031-0.086-0.061-0.086-0.088 l-0.052-9.112l5.842,3.461c-0.649,0.932-0.478,2.039,0.825,2.798c1.742,0.999,4.542,0.999,6.268-0.004 c1.738-1.002,1.723-2.628-0.014-3.631c-1.245-0.719-3.035-0.921-4.586-0.612l-6.43-3.712c0.53-0.899,0.174-1.936-1.07-2.654 c-1.239-0.715-3.01-0.914-4.554-0.615l-6.678-3.856l5.227-3.037c1.453-0.844,3.813-0.841,5.275,0.003l25.342,14.63 L157.529,45.521"/>
      <path d="M155.83,46.508l-25.342-14.63c-1.462-0.844-3.823-0.848-5.275-0.003l-5.227,3.037l6.678,3.856 c1.544-0.299,3.315-0.1,4.554,0.615c1.244,0.719,1.601,1.755,1.07,2.654l6.43,3.712c1.551-0.31,3.341-0.107,4.586,0.612 c1.736,1.003,1.752,2.628,0.014,3.631c-1.726,1.003-4.525,1.003-6.268,0.004c-1.303-0.759-1.475-1.866-0.825-2.798 l-5.842-3.461l0.052,9.112c0,0.027,0.031,0.057,0.086,0.088c0.191,0.11,0.655,0.244,0.935,0.398 c1.736,1.003,1.663,2.628-0.056,3.635c-1.732,0.999-4.577,1.002-6.313,0c-1.737-1.003-1.593-2.632,0.132-3.635 c0.425-0.247,0.398-0.431,1.6-0.561l-0.051-9.201c-0.726-0.075-1.012-0.172-1.219-0.291c-0.138-0.08-0.24-0.169-0.414-0.269 c-1.309-0.756-1.716-1.873-1.053-2.805l-6.621-3.801L100.17,46.442c-1.446,0.84-1.445,2.208,0.011,3.048l25.334,14.634 c1.462,0.844,3.816,0.844,5.27,0l25.062-14.564C157.299,48.716,157.291,47.353,155.83,46.508"/>
    </g>
  </g>
  <path fill="none" stroke="#000" stroke-width="2" stroke-miterlimit="10" d="M128 164L152 188"/>
  <g>
    <path fill="#FFF" d="M128,169c-2.757,0-5-2.243-5-5s2.243-5,5-5s5,2.243,5,5S130.757,169,128,169z"/>
    <path d="M128,160c2.207,0,4,1.793,4,4s-1.793,4-4,4c-2.209,0-4-1.793-4-4S125.791,160,128,160 M128,158c-3.309,0-6,2.691-6,6 s2.691,6,6,6s6-2.691,6-6S131.309,158,128,158L128,158z"/>
  </g>
  <path fill="none" stroke="#000" stroke-width="2" stroke-miterlimit="10" d="M152 188L152 256"/>
  <g>
    <path fill="#FFF" d="M152,193c-2.757,0-5-2.243-5-5s2.243-5,5-5s5,2.243,5,5S154.757,193,152,193z"/>
    <path d="M152,184c2.207,0,4,1.793,4,4s-1.793,4-4,4s-4-1.793-4-4S149.793,184,152,184 M152,182c-3.309,0-6,2.691-6,6s2.691,6,6,6 s6-2.691,6-6S155.309,182,152,182L152,182z"/>
  </g>
  <path fill="none" stroke="#000" stroke-width="2" stroke-miterlimit="10" d="M152 220L176 244"/>
  <g>
    <path fill="#FFF" d="M152,225c-2.757,0-5-2.243-5-5s2.243-5,5-5s5,2.243,5,5S154.757,225,152,225z"/>
    <path d="M152,216c2.207,0,4,1.793,4,4s-1.793,4-4,4s-4-1.793-4-4S149.793,216,152,216 M152,214c-3.309,0-6,2.691-6,6s2.691,6,6,6 s6-2.691,6-6S155.309,214,152,214L152,214z"/>
  </g>
  <path fill="none" stroke="#000" stroke-width="2" stroke-miterlimit="10" d="M176 244L176 256"/>
  <g>
    <path fill="#FFF" d="M176,249c-2.757,0-5-2.243-5-5s2.243-5,5-5s5,2.243,5,5S178.757,249,176,249z"/>
    <path d="M176,240c2.207,0,4,1.793,4,4s-1.793,4-4,4s-4-1.793-4-4S173.793,240,176,240 M176,238c-3.309,0-6,2.691-6,6s2.691,6,6,6 s6-2.691,6-6S179.309,238,176,238L176,238z"/>
  </g>
</svg>
