<svg 
  xmlns="http://www.w3.org/2000/svg" width="256" height="256" 
  xmlns:xlink="http://www.w3.org/1999/xlink">
  <path d="M92 200H100V220H92zM156 200H164V220H156zM220 180H228V220H220zM28 180H36V220H28z"/>
  <path d="M32 196H224V204H32z"/>
  <path fill="#FFF" d="M28,206c-1.103,0-2-0.897-2-2v-8c0-1.103,0.897-2,2-2h8c1.103,0,2,0.897,2,2v8c0,1.103-0.897,2-2,2H28z"/>
  <path d="M36 196v8h-8v-8H36M36 192h-8c-2.209 0-4 1.791-4 4v8c0 2.209 1.791 4 4 4h8c2.209 0 4-1.791 4-4v-8C40 193.791 38.209 192 36 192L36 192zM124 48H132V200H124z"/>
  <path fill="#FFF" d="M124,206c-1.103,0-2-0.897-2-2v-8c0-1.103,0.897-2,2-2h8c1.103,0,2,0.897,2,2v8c0,1.103-0.897,2-2,2H124 z"/>
  <path d="M132,196v8h-8v-8H132 M132,192h-8c-2.209,0-4,1.791-4,4v8c0,2.209,1.791,4,4,4h8c2.209,0,4-1.791,4-4v-8 C136,193.791,134.209,192,132,192L132,192z"/>
  <path fill="#FFF" d="M220,206c-1.103,0-2-0.897-2-2v-8c0-1.103,0.897-2,2-2h8c1.103,0,2,0.897,2,2v8c0,1.103-0.897,2-2,2H220 z"/>
  <path d="M228,196v8h-8v-8H228 M228,192h-8c-2.209,0-4,1.791-4,4v8c0,2.209,1.791,4,4,4h8c2.209,0,4-1.791,4-4v-8 C232,193.791,230.209,192,228,192L228,192z"/>
  <g>
    <path fill="#FFF" d="M92,206c-1.103,0-2-0.897-2-2v-8c0-1.103,0.897-2,2-2h8c1.103,0,2,0.897,2,2v8c0,1.103-0.897,2-2,2H92z"/>
    <path d="M100,196v8h-8v-8H100 M100,192h-8c-2.209,0-4,1.791-4,4v8c0,2.209,1.791,4,4,4h8c2.209,0,4-1.791,4-4v-8 C104,193.791,102.209,192,100,192L100,192z"/>
  </g>
  <g>
    <path fill="#FFF" d="M156,206c-1.103,0-2-0.897-2-2v-8c0-1.103,0.897-2,2-2h8c1.103,0,2,0.897,2,2v8c0,1.103-0.897,2-2,2H156 z"/>
    <path d="M164,196v8h-8v-8H164 M164,192h-8c-2.209,0-4,1.791-4,4v8c0,2.209,1.791,4,4,4h8c2.209,0,4-1.791,4-4v-8 C168,193.791,166.209,192,164,192L164,192z"/>
  </g>
  <g>
    <path fill="#FFF" d="M12,227c-1.654,0-3-1.346-3-3v-8c0-1.654,1.346-3,3-3h40c1.654,0,3,1.346,3,3v8c0,1.654-1.346,3-3,3H12 z"/>
    <path d="M52,214c1.103,0,2,0.897,2,2v8c0,1.103-0.897,2-2,2H12c-1.103,0-2-0.897-2-2v-8c0-1.103,0.897-2,2-2H52 M52,212H12 c-2.209,0-4,1.791-4,4v8c0,2.209,1.791,4,4,4h40c2.209,0,4-1.791,4-4v-8C56,213.791,54.209,212,52,212L52,212z"/>
    <path d="M25 222c0 .553-.448 1-1 1H14c-.552 0-1-.447-1-1v-4c0-.553.448-1 1-1h10c.552 0 1 .447 1 1V222zM34 222c0 .553-.448 1-1 1h-4c-.552 0-1-.447-1-1v-4c0-.553.448-1 1-1h4c.552 0 1 .447 1 1V222z"/>
    <g>
      <path fill="#FFF" d="M12,247c-1.654,0-3-1.346-3-3v-8c0-1.654,1.346-3,3-3h40c1.654,0,3,1.346,3,3v8c0,1.654-1.346,3-3,3H12 z"/>
      <path d="M52,234c1.103,0,2,0.897,2,2v8c0,1.103-0.897,2-2,2H12c-1.103,0-2-0.897-2-2v-8c0-1.103,0.897-2,2-2H52 M52,232H12 c-2.209,0-4,1.791-4,4v8c0,2.209,1.791,4,4,4h40c2.209,0,4-1.791,4-4v-8C56,233.791,54.209,232,52,232L52,232z"/>
      <path d="M25 242c0 .553-.448 1-1 1H14c-.552 0-1-.447-1-1v-4c0-.553.448-1 1-1h10c.552 0 1 .447 1 1V242zM34 242c0 .553-.448 1-1 1h-4c-.552 0-1-.447-1-1v-4c0-.553.448-1 1-1h4c.552 0 1 .447 1 1V242z"/>
    </g>
  </g>
  <g>
    <path fill="#FFF" d="M76,227c-1.654,0-3-1.346-3-3v-8c0-1.654,1.346-3,3-3h40c1.654,0,3,1.346,3,3v8c0,1.654-1.346,3-3,3H76 z"/>
    <path d="M116,214c1.103,0,2,0.897,2,2v8c0,1.103-0.897,2-2,2H76c-1.103,0-2-0.897-2-2v-8c0-1.103,0.897-2,2-2H116 M116,212H76 c-2.209,0-4,1.791-4,4v8c0,2.209,1.791,4,4,4h40c2.209,0,4-1.791,4-4v-8C120,213.791,118.209,212,116,212L116,212z"/>
    <path d="M89 222c0 .553-.448 1-1 1H78c-.552 0-1-.447-1-1v-4c0-.553.448-1 1-1h10c.552 0 1 .447 1 1V222zM98 222c0 .553-.448 1-1 1h-4c-.552 0-1-.447-1-1v-4c0-.553.448-1 1-1h4c.552 0 1 .447 1 1V222z"/>
    <g>
      <path fill="#FFF" d="M76,247c-1.654,0-3-1.346-3-3v-8c0-1.654,1.346-3,3-3h40c1.654,0,3,1.346,3,3v8c0,1.654-1.346,3-3,3H76 z"/>
      <path d="M116,234c1.103,0,2,0.897,2,2v8c0,1.103-0.897,2-2,2H76c-1.103,0-2-0.897-2-2v-8c0-1.103,0.897-2,2-2H116 M116,232H76 c-2.209,0-4,1.791-4,4v8c0,2.209,1.791,4,4,4h40c2.209,0,4-1.791,4-4v-8C120,233.791,118.209,232,116,232L116,232z"/>
      <path d="M89 242c0 .553-.448 1-1 1H78c-.552 0-1-.447-1-1v-4c0-.553.448-1 1-1h10c.552 0 1 .447 1 1V242zM98 242c0 .553-.448 1-1 1h-4c-.552 0-1-.447-1-1v-4c0-.553.448-1 1-1h4c.552 0 1 .447 1 1V242z"/>
    </g>
  </g>
  <g>
    <path fill="#FFF" d="M140,227c-1.654,0-3-1.346-3-3v-8c0-1.654,1.346-3,3-3h40c1.654,0,3,1.346,3,3v8c0,1.654-1.346,3-3,3 H140z"/>
    <path d="M180,214c1.103,0,2,0.897,2,2v8c0,1.103-0.897,2-2,2h-40c-1.103,0-2-0.897-2-2v-8c0-1.103,0.897-2,2-2H180 M180,212 h-40c-2.209,0-4,1.791-4,4v8c0,2.209,1.791,4,4,4h40c2.209,0,4-1.791,4-4v-8C184,213.791,182.209,212,180,212L180,212z"/>
    <path d="M153 222c0 .553-.448 1-1 1h-10c-.552 0-1-.447-1-1v-4c0-.553.448-1 1-1h10c.552 0 1 .447 1 1V222zM162 222c0 .553-.448 1-1 1h-4c-.552 0-1-.447-1-1v-4c0-.553.448-1 1-1h4c.552 0 1 .447 1 1V222z"/>
    <g>
      <path fill="#FFF" d="M140,247c-1.654,0-3-1.346-3-3v-8c0-1.654,1.346-3,3-3h40c1.654,0,3,1.346,3,3v8c0,1.654-1.346,3-3,3 H140z"/>
      <path d="M180,234c1.103,0,2,0.897,2,2v8c0,1.103-0.897,2-2,2h-40c-1.103,0-2-0.897-2-2v-8c0-1.103,0.897-2,2-2H180 M180,232 h-40c-2.209,0-4,1.791-4,4v8c0,2.209,1.791,4,4,4h40c2.209,0,4-1.791,4-4v-8C184,233.791,182.209,232,180,232L180,232z"/>
      <path d="M153 242c0 .553-.448 1-1 1h-10c-.552 0-1-.447-1-1v-4c0-.553.448-1 1-1h10c.552 0 1 .447 1 1V242zM162 242c0 .553-.448 1-1 1h-4c-.552 0-1-.447-1-1v-4c0-.553.448-1 1-1h4c.552 0 1 .447 1 1V242z"/>
    </g>
  </g>
  <g>
    <path fill="#FFF" d="M204,227c-1.654,0-3-1.346-3-3v-8c0-1.654,1.346-3,3-3h40c1.654,0,3,1.346,3,3v8c0,1.654-1.346,3-3,3 H204z"/>
    <path d="M244,214c1.103,0,2,0.897,2,2v8c0,1.103-0.897,2-2,2h-40c-1.103,0-2-0.897-2-2v-8c0-1.103,0.897-2,2-2H244 M244,212 h-40c-2.209,0-4,1.791-4,4v8c0,2.209,1.791,4,4,4h40c2.209,0,4-1.791,4-4v-8C248,213.791,246.209,212,244,212L244,212z"/>
    <path d="M217 222c0 .553-.448 1-1 1h-10c-.552 0-1-.447-1-1v-4c0-.553.448-1 1-1h10c.552 0 1 .447 1 1V222zM226 222c0 .553-.448 1-1 1h-4c-.552 0-1-.447-1-1v-4c0-.553.448-1 1-1h4c.552 0 1 .447 1 1V222z"/>
    <g>
      <path fill="#FFF" d="M204,247c-1.654,0-3-1.346-3-3v-8c0-1.654,1.346-3,3-3h40c1.654,0,3,1.346,3,3v8c0,1.654-1.346,3-3,3 H204z"/>
      <path d="M244,234c1.103,0,2,0.897,2,2v8c0,1.103-0.897,2-2,2h-40c-1.103,0-2-0.897-2-2v-8c0-1.103,0.897-2,2-2H244 M244,232 h-40c-2.209,0-4,1.791-4,4v8c0,2.209,1.791,4,4,4h40c2.209,0,4-1.791,4-4v-8C248,233.791,246.209,232,244,232L244,232z"/>
      <path d="M217 242c0 .553-.448 1-1 1h-10c-.552 0-1-.447-1-1v-4c0-.553.448-1 1-1h10c.552 0 1 .447 1 1V242zM226 242c0 .553-.448 1-1 1h-4c-.552 0-1-.447-1-1v-4c0-.553.448-1 1-1h4c.552 0 1 .447 1 1V242z"/>
    </g>
  </g>
  <g>
    <path fill="#FFF" d="M12,167c-1.654,0-3-1.346-3-3v-8c0-1.654,1.346-3,3-3h40c1.654,0,3,1.346,3,3v8c0,1.654-1.346,3-3,3H12 z"/>
    <path d="M52,154c1.103,0,2,0.897,2,2v8c0,1.103-0.897,2-2,2H12c-1.103,0-2-0.897-2-2v-8c0-1.103,0.897-2,2-2H52 M52,152H12 c-2.209,0-4,1.791-4,4v8c0,2.209,1.791,4,4,4h40c2.209,0,4-1.791,4-4v-8C56,153.791,54.209,152,52,152L52,152z"/>
    <path d="M25 162c0 .553-.448 1-1 1H14c-.552 0-1-.447-1-1v-4c0-.553.448-1 1-1h10c.552 0 1 .447 1 1V162zM34 162c0 .553-.448 1-1 1h-4c-.552 0-1-.447-1-1v-4c0-.553.448-1 1-1h4c.552 0 1 .447 1 1V162z"/>
    <g>
      <path fill="#FFF" d="M12,187c-1.654,0-3-1.346-3-3v-8c0-1.654,1.346-3,3-3h40c1.654,0,3,1.346,3,3v8c0,1.654-1.346,3-3,3H12 z"/>
      <path d="M52,174c1.103,0,2,0.897,2,2v8c0,1.103-0.897,2-2,2H12c-1.103,0-2-0.897-2-2v-8c0-1.103,0.897-2,2-2H52 M52,172H12 c-2.209,0-4,1.791-4,4v8c0,2.209,1.791,4,4,4h40c2.209,0,4-1.791,4-4v-8C56,173.791,54.209,172,52,172L52,172z"/>
      <path d="M25 182c0 .553-.448 1-1 1H14c-.552 0-1-.447-1-1v-4c0-.553.448-1 1-1h10c.552 0 1 .447 1 1V182zM34 182c0 .553-.448 1-1 1h-4c-.552 0-1-.447-1-1v-4c0-.553.448-1 1-1h4c.552 0 1 .447 1 1V182z"/>
    </g>
  </g>
  <g>
    <path fill="#FFF" d="M204,167c-1.654,0-3-1.346-3-3v-8c0-1.654,1.346-3,3-3h40c1.654,0,3,1.346,3,3v8c0,1.654-1.346,3-3,3 H204z"/>
    <path d="M244,154c1.103,0,2,0.897,2,2v8c0,1.103-0.897,2-2,2h-40c-1.103,0-2-0.897-2-2v-8c0-1.103,0.897-2,2-2H244 M244,152 h-40c-2.209,0-4,1.791-4,4v8c0,2.209,1.791,4,4,4h40c2.209,0,4-1.791,4-4v-8C248,153.791,246.209,152,244,152L244,152z"/>
    <path d="M217 162c0 .553-.448 1-1 1h-10c-.552 0-1-.447-1-1v-4c0-.553.448-1 1-1h10c.552 0 1 .447 1 1V162zM226 162c0 .553-.448 1-1 1h-4c-.552 0-1-.447-1-1v-4c0-.553.448-1 1-1h4c.552 0 1 .447 1 1V162z"/>
    <g>
      <path fill="#FFF" d="M204,187c-1.654,0-3-1.346-3-3v-8c0-1.654,1.346-3,3-3h40c1.654,0,3,1.346,3,3v8c0,1.654-1.346,3-3,3 H204z"/>
      <path d="M244,174c1.103,0,2,0.897,2,2v8c0,1.103-0.897,2-2,2h-40c-1.103,0-2-0.897-2-2v-8c0-1.103,0.897-2,2-2H244 M244,172 h-40c-2.209,0-4,1.791-4,4v8c0,2.209,1.791,4,4,4h40c2.209,0,4-1.791,4-4v-8C248,173.791,246.209,172,244,172L244,172z"/>
      <path d="M217 182c0 .553-.448 1-1 1h-10c-.552 0-1-.447-1-1v-4c0-.553.448-1 1-1h10c.552 0 1 .447 1 1V182zM226 182c0 .553-.448 1-1 1h-4c-.552 0-1-.447-1-1v-4c0-.553.448-1 1-1h4c.552 0 1 .447 1 1V182z"/>
    </g>
  </g>
  <g>
    <g fill="#FFF">
      <path d="M71.5 104.6L71.5 39.4 128 6.8 184.5 39.4 184.5 104.6 128 137.2"/>
      <path d="M128,8l55.5,32v64L128,136l-55.5-32V40L128,8 M128,5.691L70.5,38.845v66.311l57.5,33.153l57.5-33.153 V38.845L128,5.691L128,5.691z"/>
    </g>
    <path fill="#FFF" stroke="#FFF" stroke-width="2" stroke-miterlimit="10" d="M126 72H130V120H126z" stroke-linecap="round" stroke-linejoin="round"/>
    <path fill="#FFF" stroke="#FFF" stroke-width="2" stroke-miterlimit="10" d="M126 72H130V120H126z" stroke-linecap="round" stroke-linejoin="round"/>
    <path fill="#FFF" stroke="#FFF" stroke-width="2" stroke-miterlimit="10" d="M146.8 36H150.8V84H146.8z" transform="rotate(60 148.78 59.998)" stroke-linecap="round" stroke-linejoin="round"/>
    <path fill="#FFF" stroke="#FFF" stroke-width="2" stroke-miterlimit="10" d="M83.2 58H131.2V62H83.2z" transform="rotate(30 107.217 59.994)" stroke-linecap="round" stroke-linejoin="round"/>
    <path fill="#FFF" d="M73.5 103.4L73.5 40.6 128 9.2 182.5 40.6 182.5 103.4 128 134.8"/>
    <path d="M128,10.309l53.5,30.847v61.689L128,133.691l-53.5-30.847V41.155L128,10.309 M128,8L72.5,40v64l55.5,32l55.5-32V40L128,8 L128,8z"/>
    <path fill="#FFF" stroke="#000" stroke-width="2" stroke-miterlimit="10" d="M128 72L128 120M128 72L128 120M128 72L169.6 48M128 72L86.4 48" stroke-linecap="round" stroke-linejoin="round"/>
  </g>
  <g>
    <defs>
      <path id="a" d="M77.8 96.7L77.9 57.6 122.5 83.3 122.4 122.4z"/>
    </defs>
    <clipPath id="b">
      <use xlink:href="#a" overflow="visible"/>
    </clipPath>
    <g clip-path="url(#b)">
      <path fill="#FFF" d="M102.523,108.201c-0.104,0.145-0.25,0.228-0.424,0.248c0.631,0.556,1.651,1.285,1.839,1.415 c0.019,0.014,0.039,0.028,0.058,0.042l0.013-0.046C103.421,109.433,102.912,108.866,102.523,108.201 M102.183,85.568 c-0.045-0.026-0.093-0.051-0.146-0.075l-0.428-0.247l-0.013,0.007l-0.421-0.243c-0.063-0.036-0.133-0.082-0.202-0.121 c-0.197-0.114-0.393-0.187-0.431,0.101c-0.033,0.37-0.085,0.759,0.277,1.233c0.172,0.239,0.364,0.438,0.529,0.629 c0.471,0.512,0.796,0.901,1.012,1.026c0.285,0.164,0.379-0.131,0.364-1.21C102.727,86.111,102.569,85.791,102.183,85.568 M89.167,75.667l-0.16-0.158c0.045-0.084,0.096-0.173,0.148-0.261c0.122-0.208,0.238-0.406,0.359-0.585 c0.064,0.051,0.121,0.106,0.191,0.184L89.167,75.667 M89.382,73.458c-0.288-0.166-0.495-0.121-0.625,0.062 c-0.174,0.238-0.321,0.483-0.469,0.729c-0.643,1.084-0.643,1.084,0.684,2.416l0.121,0.128 c0.103,0.115,0.198,0.196,0.287,0.247c0.205,0.118,0.368,0.07,0.48-0.112l0.899-1.376c0.097-0.15,0.187-0.333,0.001-0.624 c-0.395-0.587-0.796-1.114-1.307-1.423C89.43,73.487,89.406,73.472,89.382,73.458 M106.475,90.59l0.004-1.599 c0.094,0.495,0.233,1.046,0.564,1.568l-0.006-0.004C106.877,90.551,106.673,90.543,106.475,90.59 M104.095,72.689 c-0.779-0.45-1.546-0.752-2.3-0.909c-1.783-0.353-2.764,0.58-2.571,2.425l0.006,0.033c0.013,0.11,0.012,0.25,0.019,0.407 c0,0.169-0.001,0.367,0.017,0.591c0.092,1.493,0.068,2.972-0.063,4.504l-0.185-0.202c-0.504-0.533-1.02-1.089-1.518-1.648 l-0.019-0.018c-2.072-2.254-4.425-4.818-7.087-6.355c-0.249-0.144-0.498-0.28-0.747-0.402l-0.051-0.074 c-0.644-0.871-1.313-1.676-1.957-2.452c-0.497-0.596-0.969-1.162-1.421-1.746l-0.019-0.026 c-0.306-0.382-0.6-0.655-0.887-0.82c-0.39-0.225-0.933-0.362-1.312,0.271c-0.122,0.194-0.25,0.392-0.373,0.593 c-0.469,0.766-0.957,1.557-1.484,2.245l-0.013,0.007c-0.109,0.157-0.443,0.619-0.266,1.463 c0.164,0.749,0.623,1.352,0.941,1.727c2.505,2.996,5.291,5.891,8.506,8.842c0.191,0.184,0.37,0.323,0.555,0.43 c0.307,0.177,0.556,0.218,0.761,0.189l0.038,0.191c0.101,0.411,0.343,1.042,0.936,1.723l0.025,0.029 c0.172,0.195,0.351,0.408,0.535,0.632c0.434,0.529,0.912,1.114,1.486,1.6c0.215,0.565,0.573,0.985,0.757,1.202l0.089,0.103 c0.784,0.996,1.6,1.871,2.391,2.71c0.631,0.673,1.224,1.31,1.785,1.979l0.013,0.022c0.051,0.066,0.172,0.342,0.216,0.69 c0.044,0.356-0.027,0.521-0.059,0.539l-0.02,0.011c-0.66,0.346-0.617,1.252-0.587,1.851l0.006,0.128v0.043 c0.012,0.14-0.001,0.265-0.014,0.418c-0.033,0.305-0.079,0.807,0.162,1.482c-0.135,0.268-0.148,0.583-0.118,0.88 l-0.025,0.014c-0.225,0.195-0.385,0.467-0.479,0.795c0.097,0.076,0.205,0.174,0.316,0.301 c0.257,0.035,0.512,0.105,0.768,0.21c0.044-0.063,0.095-0.121,0.153-0.171c0.173-0.143,0.314-0.282,0.245-0.667 c-0.069-0.319,0.027-0.477,0.194-0.586c0.122-0.069,0.16-0.157,0.001-0.418c-0.478-0.746-0.176-1.035-0.238-1.813 c-0.018-0.54-0.08-1.09,0.285-1.283c0.666-0.313,0.428-2.229-0.356-3.16c-1.326-1.596-2.818-2.964-4.131-4.641 c-0.242-0.309-0.536-0.544-0.566-0.966c0-0.169-0.121-0.305-0.242-0.39c-0.823-0.563-1.454-1.508-2.155-2.288 c-0.484-0.559-0.604-1.091-0.36-1.494c0.244-0.417,0.526-0.813,0.732-1.245c0.148-0.294,0.377-0.382,0.66-0.219 c0.133,0.077,0.278,0.209,0.433,0.402c0.688,0.853,1.473,1.519,2.026,2.536c0.069,0.121,0.157,0.252,0.236,0.298 c0.058,0.033,0.113,0.022,0.154-0.073c0.122-0.238,0.461-0.321,0.168-0.879c-0.044-0.107-0.121-0.181-0.204-0.258 c-0.969-1.059-1.932-2.093-2.875-3.137c-0.105-0.114-0.197-0.189-0.283-0.239c-0.21-0.121-0.384-0.086-0.625-0.079 c-0.972,0.056-1.135,1.159-1.668,1.756c-0.166,0.189-0.321,0.292-0.566,0.15c-0.076-0.044-0.161-0.111-0.258-0.208 c-2.876-2.638-5.683-5.478-8.34-8.659c-0.51-0.603-0.63-0.981-0.303-1.432c0.68-0.885,1.278-1.907,1.888-2.877 c0.129-0.216,0.267-0.282,0.455-0.174c0.111,0.064,0.24,0.191,0.395,0.385c1.083,1.404,2.27,2.699,3.346,4.158 c0.15,0.208,0.314,0.425,0.515,0.541c0.029,0.017,0.06,0.032,0.09,0.044c0.248,0.121,0.493,0.251,0.736,0.391 c2.39,1.38,4.543,3.688,6.69,6.035c0.778,0.861,1.549,1.674,2.321,2.508c0.159,0.179,0.291,0.316,0.396,0.377 c0.161,0.093,0.26,0.004,0.295-0.397c0.19-1.727,0.253-3.55,0.137-5.469c-0.031-0.363,0.002-0.697-0.042-1.067 c-0.168-1.56,0.913-1.802,1.904-1.605c0.669,0.143,1.333,0.413,2,0.798c0.58,0.335,1.163,0.757,1.754,1.259 c0.752,0.655,1.262,1.537,1.79,2.4c0.216,0.346,0.19,0.69,0.189,1.028c-0.005,1.599,0.029,3.221-0.014,4.798 c-0.003,0.976,0.333,2.103,0.151,2.976l0.044,0.165c0.163,0.157,0.334,0.276,0.508,0.376 c0.212,0.122,0.427,0.217,0.635,0.32c0.287,0.137,0.365-0.068,0.397-0.329c0.04-0.389,0.066-0.821,0.08-1.247 c0.001-0.418,0.168-0.542,0.545-0.324l6.359,3.671c0.722,0.446,1,1.276,0.698,1.851c-0.245,0.483-0.731,0.555-1.179,0.715 c-2.151,0.845-4.613,0.681-7.448-0.722c-0.158-0.08-0.291-0.149-0.405-0.215c-0.584-0.337-0.658-0.571-0.837-1.56 c-0.109-0.608-0.371-0.851-0.666-1.021c-0.078-0.045-0.159-0.085-0.239-0.126c-0.072-0.036-0.147-0.075-0.22-0.116 c-0.029-0.017-0.059-0.035-0.087-0.053c-0.013-0.008-0.026-0.016-0.039-0.023c-0.43-0.249-0.588,0.013-0.602,0.462 l-0.007,2.436c-0.001,0.278-0.002,0.653,0.266,0.91c0.051,0.054,0.104,0.094,0.157,0.125 c0.091,0.053,0.185,0.079,0.277,0.104c0.093,0.024,0.187,0.049,0.28,0.103c0.093,0.054,0.186,0.136,0.275,0.276 c0.052-0.345,0.646-0.222,0.896-0.247c0.486-0.028,1.023,0.032,1.528,0.008c0.13-0.001,0.245,0.026,0.349,0.085 c0.185,0.106,0.331,0.318,0.461,0.662c0.336,0.79,0.603,1.597,0.843,2.39c0.095,0.334,0.12,0.628-0.168,0.601 c-0.85-0.072-1.58,0.205-2.525-0.172l-0.121-0.07c-0.041,0.866-0.788,0.31-1.21,0.411c-0.391,0.083-0.515,1.004-0.126,1.573 c0.325,0.467,0.362,0.819,0.38,1.234c0.049,0.771-0.051,2.205-0.102,2.227c-0.762,0.397,0.079,1.375,0.358,2.088 c0.038,0.099,0.076,0.236,0.111,0.395l0.999,0.577c-0.08-0.439-0.185-0.823-0.265-1.035 c-0.121-0.313-0.267-0.588-0.401-0.834l-0.038-0.066c0.205-0.175,0.244-0.513,0.291-1.331 c0.014-0.286,0.048-0.994,0.018-1.533c-0.025-0.411-0.067-1.148-0.615-2.038V96.95l0.153,0.03 c0.269,0.06,0.856,0.178,1.184-0.271c0.575,0.148,1.074,0.12,1.521,0.092c0.263-0.018,0.512-0.035,0.755-0.012 c0.614,0.061,1.069-0.456,0.702-1.733l-0.006-0.025c-0.203-0.661-0.444-1.425-0.761-2.225 c2.051,0.604,3.957,0.557,5.692-0.131c0.07-0.018,0.141-0.043,0.211-0.062c0.416-0.134,0.935-0.291,1.237-0.888 c0.29-0.568,0.279-1.331-0.039-2.109c-0.305-0.749-0.853-1.404-1.504-1.809l-0.032-0.019l-6.359-3.671 c-0.645-0.372-1.137-0.296-1.375,0.154c-0.012-0.147-0.018-0.275-0.018-0.4c0.028-1.064,0.019-2.165,0.015-3.217 c0.001-0.536-0.003-1.067-0.001-1.595v-0.081c0.001-0.396,0.009-1.126-0.506-1.96l-0.121-0.195 c-0.542-0.885-1.152-1.885-2.077-2.691l-0.02-0.019C105.403,73.541,104.733,73.058,104.095,72.689"/>
      <path d="M101.176,85.01l0.421,0.243l0.013-0.007l0.428,0.247c0.052,0.024,0.101,0.049,0.146,0.075 c0.386,0.223,0.543,0.543,0.542,1.101c0.015,1.079-0.079,1.374-0.364,1.21c-0.216-0.125-0.541-0.514-1.012-1.026 c-0.166-0.191-0.357-0.39-0.529-0.629c-0.363-0.474-0.311-0.863-0.277-1.233c0.039-0.288,0.234-0.215,0.431-0.101 C101.043,84.929,101.113,84.974,101.176,85.01 M89.38,77.039c-0.088-0.051-0.184-0.132-0.287-0.247l-0.121-0.128 c-1.327-1.332-1.327-1.332-0.684-2.416c0.148-0.245,0.295-0.491,0.469-0.729c0.13-0.183,0.337-0.228,0.625-0.062 c0.023,0.014,0.047,0.029,0.072,0.045c0.511,0.309,0.912,0.835,1.307,1.423c0.185,0.291,0.095,0.474-0.001,0.624 l-0.899,1.376C89.748,77.109,89.585,77.157,89.38,77.039 M104.093,73.809c-0.667-0.385-1.331-0.655-2-0.798 c-0.991-0.197-2.072,0.045-1.904,1.605c0.043,0.37,0.011,0.704,0.042,1.067c0.116,1.918,0.053,3.742-0.137,5.469 c-0.036,0.402-0.134,0.49-0.295,0.397c-0.105-0.061-0.237-0.199-0.396-0.377c-0.771-0.834-1.543-1.647-2.321-2.508 c-2.147-2.347-4.3-4.655-6.69-6.035c-0.243-0.14-0.488-0.271-0.736-0.391c-0.031-0.012-0.061-0.027-0.09-0.044 c-0.201-0.116-0.365-0.333-0.515-0.541c-1.077-1.459-2.263-2.754-3.346-4.158c-0.155-0.194-0.284-0.321-0.395-0.385 c-0.188-0.108-0.326-0.042-0.455,0.174c-0.61,0.97-1.208,1.992-1.888,2.877c-0.328,0.451-0.207,0.829,0.303,1.432 c2.658,3.181,5.464,6.021,8.34,8.659c0.097,0.096,0.182,0.164,0.258,0.208c0.245,0.142,0.4,0.04,0.566-0.15 c0.533-0.597,0.696-1.701,1.668-1.756c0.241-0.007,0.414-0.042,0.625,0.079c0.085,0.05,0.177,0.125,0.283,0.239 c0.943,1.044,1.906,2.078,2.875,3.137c0.083,0.077,0.16,0.151,0.204,0.258c0.292,0.558-0.046,0.642-0.168,0.879 c-0.041,0.095-0.096,0.106-0.154,0.073c-0.079-0.046-0.167-0.177-0.236-0.298c-0.554-1.017-1.338-1.684-2.026-2.536 c-0.155-0.193-0.3-0.325-0.433-0.402c-0.283-0.164-0.512-0.076-0.66,0.219c-0.206,0.432-0.488,0.828-0.732,1.245 c-0.245,0.403-0.125,0.935,0.36,1.494c0.702,0.78,1.332,1.724,2.155,2.288c0.122,0.085,0.243,0.221,0.242,0.39 c0.03,0.422,0.324,0.657,0.566,0.966c1.313,1.677,2.805,3.045,4.131,4.641c0.784,0.93,1.022,2.846,0.356,3.16 c-0.365,0.193-0.303,0.744-0.285,1.283c0.062,0.777-0.24,1.067,0.238,1.813c0.159,0.261,0.121,0.349-0.001,0.418 c-0.167,0.11-0.263,0.268-0.194,0.586c0.069,0.385-0.072,0.524-0.245,0.667c-0.059,0.051-0.109,0.108-0.153,0.171 c0.157,0.064,0.314,0.142,0.472,0.233c1.034,0.597,1.595,1.442,1.887,2.052c0.057,0.121,0.114,0.25,0.159,0.364 c0.762-0.376,1.683-0.263,2.494,0.205c0.389,0.225,0.733,0.504,1.046,0.832c0.128,0.022,0.262,0.07,0.403,0.151l0.124,0.072 c-0.035-0.158-0.073-0.295-0.111-0.395c-0.279-0.712-1.121-1.69-0.358-2.088c0.051-0.022,0.151-1.456,0.102-2.227 c-0.018-0.415-0.055-0.767-0.38-1.234c-0.389-0.569-0.265-1.49,0.126-1.573c0.422-0.102,1.169,0.455,1.21-0.411l0.121,0.07 c0.945,0.376,1.675,0.1,2.525,0.172c0.288,0.027,0.263-0.267,0.168-0.601c-0.24-0.793-0.507-1.601-0.843-2.39 c-0.13-0.344-0.277-0.555-0.461-0.662c-0.104-0.06-0.218-0.086-0.349-0.085c-0.505,0.024-1.042-0.036-1.528-0.008 c-0.25,0.025-0.844-0.098-0.896,0.247c-0.089-0.14-0.182-0.222-0.275-0.276c-0.093-0.054-0.188-0.079-0.28-0.103 c-0.093-0.026-0.186-0.052-0.277-0.104c-0.053-0.031-0.105-0.07-0.157-0.125c-0.268-0.257-0.267-0.632-0.266-0.91 l0.007-2.436c0.014-0.449,0.171-0.71,0.602-0.462c0.013,0.007,0.026,0.015,0.039,0.023c0.028,0.019,0.058,0.036,0.087,0.053 c0.072,0.042,0.147,0.08,0.22,0.116c0.081,0.041,0.161,0.081,0.239,0.126c0.294,0.17,0.556,0.413,0.666,1.021 c0.179,0.989,0.253,1.223,0.837,1.56c0.114,0.066,0.247,0.135,0.405,0.215c2.835,1.402,5.297,1.567,7.448,0.722 c0.448-0.16,0.934-0.232,1.179-0.715c0.302-0.575,0.023-1.405-0.698-1.851l-6.359-3.671 c-0.377-0.218-0.543-0.094-0.545,0.324c-0.014,0.426-0.041,0.858-0.08,1.247c-0.033,0.261-0.11,0.466-0.397,0.329 c-0.208-0.104-0.423-0.198-0.635-0.32c-0.173-0.1-0.345-0.219-0.508-0.376l-0.044-0.165c0.182-0.873-0.154-2-0.151-2.976 c0.042-1.577,0.009-3.199,0.014-4.798c0.001-0.337,0.027-0.682-0.189-1.028c-0.528-0.863-1.038-1.746-1.79-2.4 C105.256,74.566,104.673,74.144,104.093,73.809"/>
      <path fill="#FFF" d="M105.876,105.316v0.007c-0.287-0.166-0.709-0.072-0.942,0.756c-0.168,0.631-0.086,0.943-0.029,1.071 c0.032,0.048,0.089,0.169,0.287,0.283c0.204,0.118,0.396,0.155,0.633,0.013l0.479-1.744 C106.195,105.538,106.062,105.423,105.876,105.316 M87.75,94.844c-0.21-0.121-0.428-0.144-0.697-0.049l-0.478,1.745v0.007 c0.102,0.147,0.236,0.276,0.389,0.364c0.428,0.247,0.787-0.06,1-0.819c0.167-0.601,0.098-0.884,0.041-0.998 C87.986,95.054,87.948,94.958,87.75,94.844 M114.477,110.193c-0.268-0.155-0.518-0.145-0.71,0.024l1.053,0.608 c0.013-0.132,0.001-0.257-0.037-0.345C114.719,110.349,114.585,110.256,114.477,110.193 M93.039,101.425l0.472-1.785 l0.019-0.018L93.039,101.425 M94.154,102.95c-0.083-0.048-0.153-0.14-0.197-0.231c-0.045-0.092-0.057-0.194-0.038-0.264 l1.344-4.934c0.026-0.109,0.122-0.142,0.23-0.08l1.551,0.896l0.179,0.213c0.051,0.103,0.063,0.191,0.05,0.272l-1.35,4.93 c-0.026,0.103-0.123,0.143-0.244,0.073l0.013,0.015L94.154,102.95 M87.212,92.998c0.384-0.028,0.851,0.021,1.335,0.3 c0.556,0.321,1.002,0.806,1.288,1.405c0.381,0.809,0.456,1.74,0.19,2.689c-0.504,1.891-1.912,2.203-3.048,1.547 c-0.313-0.181-0.606-0.46-0.861-0.813l-0.071,0.356v0.022l-0.388,1.415c-0.032,0.099-0.122,0.135-0.243,0.065l0.006-0.011 l-1.539-0.888c-0.077-0.044-0.147-0.122-0.198-0.217c-0.044-0.099-0.057-0.195-0.038-0.264l1.835-6.723 c0.026-0.11,0.122-0.143,0.23-0.08l1.271,0.734l0.172,0.187l0.057,0.239V92.998 M104.42,109.01 c-0.587-0.339-1.053-0.85-1.358-1.475c-0.394-0.823-0.462-1.781-0.19-2.763c0.491-1.803,1.905-2.104,2.984-1.48 c0.485,0.28,0.849,0.652,1.135,1.162l0.103-0.161c0.039-0.059,0.122-0.069,0.211-0.017l1.213,0.7 c0.076,0.044,0.146,0.128,0.191,0.22c0.051,0.103,0.057,0.188,0.044,0.268l-1.842,6.726 c-0.026,0.103-0.122,0.135-0.23,0.073v-0.015l-1.564-0.903c-0.07-0.04-0.14-0.118-0.178-0.206 c-0.039-0.096-0.07-0.202-0.05-0.272l0.4-1.466v-0.022l0.045-0.091C105.027,109.272,104.708,109.176,104.42,109.01 M113.519,114.27l0.006-0.003c-0.792-0.457-1.417-1.126-1.792-1.917c-0.414-0.849-0.507-1.755-0.268-2.616 c0.491-1.803,2.071-2.008,3.297-1.3c0.85,0.49,1.282,1.13,1.499,1.593c0.375,0.775,0.443,1.637,0.204,2.499 c-0.059,0.275-0.181,0.557-0.258,0.689c-0.051,0.051-0.122,0.069-0.217,0.014l-2.663-1.537 c0.019,0.15,0.063,0.279,0.121,0.393c0.121,0.209,0.325,0.401,0.605,0.563c0.313,0.181,0.646,0.27,1.029,0.263 c0.034,0.004,0.071,0.016,0.108,0.038c0.033,0.019,0.066,0.046,0.096,0.08c0.064,0.066,0.121,0.166,0.134,0.254l0.265,1.233 c0.031,0.136-0.02,0.238-0.11,0.253C114.943,114.828,114.183,114.653,113.519,114.27 M92.926,96.487 c0.441-0.179,0.927-0.133,1.368,0.121c0.306,0.177,0.504,0.335,0.689,0.538c0.108,0.136,0.159,0.327,0.101,0.433 l-0.624,1.176c-0.042,0.077-0.13,0.089-0.22,0.038c-0.021-0.012-0.041-0.027-0.061-0.046 c-0.166-0.147-0.281-0.25-0.466-0.357c-0.127-0.074-0.6-0.273-1.087,0.239l-0.744,2.797 c-0.032,0.099-0.122,0.142-0.243,0.072L90.1,100.61c-0.07-0.041-0.147-0.136-0.178-0.221 c-0.064-0.103-0.064-0.198-0.051-0.271l1.351-4.93c0.026-0.11,0.122-0.143,0.23-0.08l1.271,0.734l0.179,0.198 c0.044,0.099,0.063,0.176,0.05,0.257L92.926,96.487 M99.783,100.358c0.416-0.062,0.934-0.042,1.534,0.305 c0.511,0.295,0.887,0.688,1.122,1.177c0.299,0.628,0.342,1.373,0.116,2.205l-0.841,3.057 c-0.025,0.103-0.122,0.143-0.23,0.08l-1.551-0.896c-0.077-0.044-0.153-0.14-0.191-0.228 c-0.051-0.096-0.063-0.198-0.044-0.268l0.782-2.863c0.123-0.437,0.066-0.594,0.066-0.594 c-0.02-0.019-0.064-0.066-0.166-0.125c-0.243-0.14-0.435-0.14-0.767-0.053l-0.892,3.218c-0.019,0.106-0.122,0.143-0.23,0.08 l-1.539-0.888c-0.083-0.048-0.147-0.136-0.197-0.232c-0.044-0.092-0.057-0.194-0.038-0.264l1.344-4.934 c0.026-0.11,0.122-0.143,0.23-0.08l1.271,0.733l0.185,0.202l0.057,0.239L99.783,100.358 M119.326,111.729 c0.442-0.179,0.928-0.133,1.368,0.122c0.306,0.177,0.498,0.331,0.683,0.534c0.121,0.143,0.172,0.334,0.121,0.444 l-0.624,1.175c-0.042,0.078-0.13,0.09-0.224,0.036c-0.021-0.012-0.042-0.028-0.064-0.047 c-0.159-0.144-0.274-0.247-0.453-0.35c-0.141-0.081-0.606-0.277-1.094,0.235l-0.75,2.793 c-0.032,0.099-0.122,0.143-0.243,0.072l0.006,0.004l-1.545-0.893c-0.07-0.04-0.146-0.136-0.191-0.228 c-0.044-0.092-0.063-0.198-0.044-0.268l1.351-4.93c0.019-0.113,0.122-0.143,0.23-0.08l1.258,0.727 c0.07,0.041,0.141,0.118,0.179,0.198c0.051,0.103,0.076,0.184,0.063,0.265L119.326,111.729 M81.294,93.557 c0.3,0.173,0.684,0.329,0.768-0.005c0.039-0.11,0-0.206-0.483-0.742l-0.835-0.938c-0.854-0.926-1.216-2.024-0.957-2.918 c0.323-1.225,1.667-1.507,3.11-0.674c0.881,0.509,1.633,1.34,2.072,2.291c0.076,0.162,0.063,0.316-0.027,0.352l-1.038,0.518 c-0.048,0.028-0.107,0.021-0.166-0.013s-0.118-0.096-0.166-0.179c-0.325-0.533-0.618-0.841-1.027-1.077 c-0.179-0.104-0.606-0.314-0.697,0.016c-0.032,0.106,0.076,0.25,0.574,0.787l0.083,0.092l0.714,0.787 c0.886,0.967,1.209,1.955,0.938,2.908c-0.162,0.604-0.565,1.003-1.129,1.141c-0.608,0.149-1.336-0.007-2.134-0.468 l0.006-0.003c-0.971-0.561-1.825-1.48-2.359-2.545c-0.076-0.154-0.069-0.319,0.027-0.359l1.172-0.558 c0.051-0.022,0.109-0.019,0.186,0.026l0.159,0.18C80.408,92.78,80.867,93.31,81.294,93.557 M109.796,112.114 c-0.498-0.288-0.862-0.659-1.084-1.111c-0.261-0.554-0.291-1.174-0.084-1.907l1.441-5.333 c0.039-0.095,0.135-0.135,0.243-0.073l1.545,0.892c0.07,0.041,0.147,0.136,0.191,0.228s0.063,0.191,0.044,0.268 l-1.473,5.366l-0.013,0.132l0.089,0.037c0.016,0.006,0.033,0.014,0.049,0.023c0.056,0.032,0.112,0.085,0.161,0.165 c0.058,0.092,0.083,0.188,0.07,0.268l-0.125,1.25c-0.013,0.095-0.071,0.15-0.154,0.139 c-0.147-0.019-0.447-0.089-0.888-0.344H109.796 M96.458,97.77c-0.345-0.199-0.625-0.501-0.785-0.842 c-0.159-0.319-0.202-0.661-0.119-0.943c0.149-0.583,0.706-0.717,1.332-0.355c0.338,0.195,0.606,0.489,0.791,0.839 c0.146,0.319,0.19,0.668,0.119,0.95c-0.162,0.568-0.712,0.706-1.337,0.345V97.77 M96.89,94.514 c-1.072-0.619-2-0.354-2.272,0.643c-0.039,0.154-0.065,0.322-0.072,0.495c-0.077-0.052-0.16-0.1-0.249-0.151 c-0.351-0.203-0.715-0.325-1.073-0.355c-0.185-0.209-0.364-0.342-0.498-0.42l-1.271-0.733 c-0.447-0.258-0.843-0.208-1.049,0.1c-0.464-0.812-1.115-1.482-1.855-1.91c-0.364-0.21-0.741-0.347-1.118-0.402 c-0.14-0.147-0.293-0.265-0.446-0.354l-1.073-0.619c-0.038-0.14-0.089-0.279-0.152-0.418l-0.006-0.019 c-0.623-1.344-1.662-2.51-2.856-3.199c-1.903-1.099-3.605-0.7-4.051,0.946c-0.22,0.792-0.114,1.72,0.268,2.646l-1.198,0.565 c-0.48,0.215-0.534,1.015-0.126,1.83c0.687,1.374,1.771,2.58,2.977,3.313l0.121,0.077c0.702,0.405,1.374,0.624,1.974,0.647 l-0.162,0.59c-0.09,0.374-0.009,0.862,0.227,1.344c0.229,0.463,0.573,0.853,0.95,1.07l1.379,0.796l0.153,0.103 c0.549,0.317,1.022,0.186,1.178-0.334l0.219-0.814l0.166,0.104c0.664,0.383,1.412,0.55,2.09,0.383l0.102,0.228 c0.222,0.452,0.573,0.845,0.931,1.051l1.539,0.889c0.549,0.317,1.016,0.183,1.177-0.327l0.007-0.033l0.149-0.561 c-0.078,0.374,0.003,0.833,0.226,1.284c0.229,0.47,0.586,0.875,0.957,1.088l1.539,0.888 c0.096,0.056,0.185,0.093,0.275,0.115c0.121,0.04,0.243,0.052,0.351,0.041c0.191,0.243,0.408,0.441,0.631,0.571l1.539,0.888 c0.268,0.155,0.518,0.196,0.722,0.138c0.204,0.302,0.459,0.544,0.721,0.695l1.551,0.896 c0.223,0.128,0.436,0.179,0.619,0.159c0.174-0.02,0.321-0.103,0.424-0.248c0.388,0.665,0.898,1.231,1.485,1.659 l-0.013,0.046l-0.033,0.119c-0.071,0.224-0.091,0.616,0.144,1.208c0.209,0.518,0.592,0.988,1.007,1.228l1.411,0.814 l0.153,0.104c0.549,0.317,1.036,0.157,1.171-0.367l0.355-1.301c0.325,0.503,0.828,1.081,1.588,1.52l0.173,0.084 c0.53,0.284,0.894,0.362,1.08,0.381c0.198,0.026,0.371-0.014,0.499-0.124c0.497,0.698,1.128,1.291,1.843,1.733l0.127,0.081 c0.677,0.391,1.425,0.617,2.109,0.637c0.235,0.415,0.554,0.753,0.88,0.941l1.539,0.889l0.051,0.029 c0.523,0.28,0.972,0.135,1.12-0.36l0.711-2.632c0.122-0.099,0.211-0.106,0.25-0.099c0.026,0.015,0.058,0.041,0.147,0.122 l0.019,0.019c0.096,0.084,0.204,0.162,0.306,0.221c0.473,0.273,0.908,0.208,1.101-0.173l0.63-1.165l0.02-0.047 c0.238-0.539-0.015-1.471-0.583-2.122l-0.032-0.041c-0.325-0.357-0.645-0.607-1.084-0.861 c-0.352-0.203-0.716-0.325-1.074-0.355c-0.159-0.173-0.332-0.324-0.511-0.427l-1.257-0.727 c-0.453-0.261-0.856-0.208-1.062,0.107c-0.363-0.613-1-1.43-2.028-2.023c-0.645-0.372-1.341-0.554-1.987-0.508l0.252-0.927 c0.09-0.337,0.021-0.804-0.182-1.259l-0.07-0.136c-0.242-0.448-0.573-0.816-0.918-1.015l-1.545-0.892 c-0.517-0.299-0.978-0.183-1.159,0.279l-0.019,0.077l-0.311,1.151c-0.102-0.095-0.204-0.169-0.306-0.228l-0.09-0.052 l-0.999-0.577l-0.124-0.072c-0.141-0.081-0.275-0.129-0.403-0.151c-0.313-0.328-0.657-0.607-1.046-0.832 c-0.811-0.468-1.732-0.581-2.494-0.205c-0.045-0.114-0.102-0.243-0.159-0.364c-0.292-0.61-0.853-1.455-1.887-2.052 c-0.158-0.091-0.314-0.168-0.472-0.233c-0.255-0.105-0.51-0.176-0.768-0.21c-0.111-0.127-0.219-0.226-0.316-0.301 c-0.075-0.059-0.143-0.103-0.201-0.137l-0.824-0.476c0.136-0.561,0.029-1.269-0.282-1.941l-0.045-0.092 C98.044,95.452,97.503,94.868,96.89,94.514"/>
      <path d="M97.045,98.336l-1.551-0.896c-0.108-0.063-0.205-0.03-0.23,0.08l-1.344,4.934c-0.019,0.07-0.007,0.172,0.038,0.264 c0.044,0.092,0.114,0.184,0.197,0.231l1.539,0.889l-0.013-0.015c0.121,0.07,0.217,0.03,0.244-0.073l1.35-4.93 c0.013-0.081,0-0.169-0.05-0.272L97.045,98.336 M86.964,96.911c-0.153-0.088-0.287-0.217-0.389-0.364v-0.007l0.478-1.745 c0.269-0.095,0.486-0.072,0.697,0.049c0.198,0.114,0.236,0.21,0.255,0.25c0.057,0.114,0.126,0.396-0.041,0.998 C87.751,96.851,87.392,97.158,86.964,96.911 M88.547,93.298c-0.485-0.28-0.952-0.329-1.335-0.3v-0.037l-0.057-0.239 l-0.172-0.187l-1.271-0.734c-0.109-0.063-0.205-0.03-0.23,0.08l-1.835,6.723c-0.019,0.069-0.007,0.165,0.038,0.264 c0.051,0.095,0.121,0.173,0.198,0.217l1.539,0.888l-0.006,0.011c0.121,0.07,0.211,0.034,0.243-0.065l0.388-1.415v-0.022 l0.071-0.356c0.255,0.353,0.548,0.633,0.861,0.813c1.136,0.656,2.544,0.344,3.048-1.547c0.265-0.949,0.191-1.881-0.19-2.689 C89.549,94.104,89.103,93.619,88.547,93.298 M105.192,107.435c-0.198-0.114-0.255-0.235-0.287-0.283 c-0.057-0.128-0.139-0.44,0.029-1.071c0.232-0.828,0.655-0.922,0.942-0.756v-0.007c0.186,0.107,0.319,0.221,0.428,0.387 l-0.479,1.744C105.588,107.59,105.396,107.553,105.192,107.435 M105.856,103.292c-1.079-0.623-2.493-0.322-2.984,1.48 c-0.271,0.982-0.204,1.94,0.19,2.763c0.305,0.625,0.771,1.136,1.358,1.475c0.287,0.166,0.607,0.263,0.914,0.278 l-0.045,0.091v0.022l-0.4,1.466c-0.02,0.07,0.012,0.176,0.05,0.272c0.038,0.088,0.108,0.166,0.178,0.206l1.564,0.903v0.015 c0.108,0.063,0.205,0.03,0.23-0.073l1.842-6.726c0.013-0.081,0.006-0.165-0.044-0.268c-0.044-0.092-0.115-0.176-0.191-0.22 l-1.213-0.7c-0.089-0.052-0.172-0.042-0.211,0.017l-0.103,0.161C106.705,103.943,106.341,103.571,105.856,103.292 M113.767,110.217c0.192-0.168,0.442-0.179,0.71-0.024c0.108,0.063,0.243,0.155,0.306,0.287 c0.038,0.088,0.05,0.213,0.037,0.345L113.767,110.217 M114.763,108.434c-1.226-0.708-2.806-0.503-3.297,1.3 c-0.239,0.861-0.146,1.768,0.268,2.616c0.375,0.79,1,1.459,1.792,1.917l-0.006,0.003c0.664,0.383,1.425,0.558,2.058,0.498 c0.09-0.015,0.141-0.117,0.11-0.253l-0.265-1.233c-0.013-0.088-0.07-0.188-0.134-0.254c-0.03-0.034-0.063-0.061-0.096-0.08 c-0.037-0.021-0.074-0.034-0.108-0.038c-0.384,0.006-0.716-0.083-1.029-0.263c-0.281-0.162-0.485-0.354-0.605-0.563 c-0.058-0.114-0.102-0.243-0.121-0.393l2.663,1.537c0.095,0.056,0.166,0.038,0.217-0.014 c0.077-0.132,0.199-0.414,0.258-0.689c0.239-0.861,0.171-1.724-0.204-2.499 C116.045,109.563,115.612,108.924,114.763,108.434 M94.294,96.608c-0.441-0.254-0.927-0.3-1.368-0.121l0.026-0.191 c0.013-0.081-0.006-0.158-0.05-0.257l-0.179-0.198l-1.271-0.734c-0.108-0.063-0.205-0.03-0.23,0.08l-1.351,4.93 c-0.013,0.073-0.013,0.168,0.051,0.271c0.031,0.084,0.108,0.18,0.178,0.221l1.539,0.888c0.121,0.07,0.211,0.026,0.243-0.072 l0.744-2.797c0.487-0.513,0.96-0.313,1.087-0.239c0.186,0.107,0.3,0.21,0.466,0.357c0.02,0.019,0.041,0.034,0.061,0.046 c0.09,0.052,0.178,0.04,0.22-0.038l0.624-1.176c0.058-0.106,0.007-0.297-0.101-0.433 C94.798,96.943,94.6,96.786,94.294,96.608 M101.317,100.663c-0.6-0.346-1.118-0.366-1.534-0.305l0.02-0.128l-0.057-0.239 l-0.185-0.202l-1.271-0.733c-0.108-0.063-0.204-0.03-0.23,0.08l-1.344,4.934c-0.019,0.069-0.006,0.172,0.038,0.264 c0.05,0.096,0.114,0.184,0.197,0.232l1.539,0.888c0.109,0.063,0.211,0.027,0.23-0.08l0.892-3.218 c0.333-0.087,0.524-0.087,0.767,0.053c0.102,0.059,0.146,0.107,0.166,0.125c0,0,0.057,0.157-0.066,0.594l-0.782,2.863 c-0.02,0.07-0.007,0.172,0.044,0.268c0.038,0.088,0.115,0.184,0.191,0.228l1.551,0.896c0.108,0.063,0.205,0.023,0.23-0.08 l0.841-3.057c0.226-0.832,0.183-1.576-0.116-2.205C102.204,101.352,101.828,100.958,101.317,100.663 M120.694,111.851 c-0.44-0.254-0.926-0.3-1.368-0.122l0.026-0.19c0.013-0.081-0.013-0.162-0.063-0.265c-0.038-0.081-0.108-0.158-0.179-0.198 l-1.258-0.727c-0.108-0.063-0.211-0.033-0.23,0.08l-1.351,4.93c-0.019,0.07,0,0.176,0.044,0.268 c0.045,0.092,0.122,0.188,0.191,0.228l1.545,0.893l-0.006-0.004c0.121,0.07,0.211,0.026,0.243-0.072l0.75-2.793 c0.488-0.512,0.954-0.316,1.094-0.235c0.179,0.103,0.294,0.206,0.453,0.35c0.021,0.019,0.043,0.035,0.064,0.047 c0.094,0.054,0.182,0.042,0.224-0.036l0.624-1.175c0.051-0.11,0-0.301-0.121-0.444 C121.192,112.182,121,112.028,120.694,111.851 M82.896,88.279c-1.443-0.833-2.787-0.551-3.11,0.674 c-0.259,0.894,0.103,1.992,0.957,2.918l0.835,0.938c0.484,0.537,0.522,0.632,0.483,0.742 c-0.084,0.334-0.467,0.178-0.768,0.005c-0.427-0.247-0.887-0.776-1.211-1.383l-0.159-0.18 c-0.077-0.044-0.134-0.048-0.186-0.026l-1.172,0.558c-0.096,0.04-0.103,0.205-0.027,0.359 c0.535,1.065,1.389,1.985,2.359,2.545l-0.006,0.003c0.798,0.461,1.526,0.617,2.134,0.468 c0.563-0.138,0.967-0.537,1.129-1.141c0.271-0.953-0.052-1.941-0.938-2.908l-0.714-0.787l-0.083-0.092 c-0.498-0.537-0.606-0.68-0.574-0.787c0.091-0.33,0.519-0.12,0.697-0.016c0.409,0.236,0.702,0.544,1.027,1.077 c0.047,0.083,0.106,0.145,0.166,0.179s0.118,0.041,0.166,0.013l1.038-0.518c0.089-0.036,0.103-0.19,0.027-0.352 C84.529,89.619,83.777,88.788,82.896,88.279 M111.857,104.581l-1.545-0.892c-0.108-0.063-0.205-0.022-0.243,0.073 l-1.441,5.333c-0.207,0.733-0.176,1.353,0.084,1.907c0.222,0.452,0.586,0.824,1.084,1.111h0.013 c0.44,0.254,0.741,0.325,0.888,0.344c0.083,0.011,0.141-0.044,0.154-0.139l0.125-1.25c0.013-0.081-0.012-0.176-0.07-0.268 c-0.049-0.079-0.105-0.132-0.161-0.165c-0.017-0.009-0.033-0.017-0.049-0.023l-0.089-0.037l0.013-0.132l1.473-5.366 c0.02-0.077,0-0.176-0.044-0.268S111.928,104.622,111.857,104.581 M96.887,95.629c-0.626-0.361-1.183-0.227-1.332,0.355 c-0.083,0.283-0.04,0.624,0.119,0.943c0.159,0.341,0.439,0.643,0.785,0.842v-0.007c0.625,0.361,1.176,0.223,1.337-0.345 c0.071-0.282,0.027-0.631-0.119-0.95C97.493,96.118,97.225,95.824,96.887,95.629"/>
    </g>
  </g>
  <g>
    <defs>
      <path id="c" d="M139 116.1L138.9 83.5 173 63.9 173.1 96.5z"/>
    </defs>
    <clipPath id="d">
      <use xlink:href="#c" overflow="visible"/>
    </clipPath>
    <g clip-path="url(#d)">
      <path d="M150.28,76.974l-11.352,6.554l0.037,13.044l11.352-6.554L150.28,76.974 M172.978,63.869l-11.352,6.554l0.037,13.044 l-11.346,6.55l0.019,6.515l-5.676,3.277l0.037,13.044l5.676-3.277l-0.019-6.522l11.346-6.55l0.019,6.522l5.676-3.277 l-0.037-13.044l-5.676,3.277l-0.019-6.515l11.352-6.554L172.978,63.869"/>
    </g>
  </g>
</svg>
